<?xml version="1.0" encoding="UTF-8"?>
<svg version="1.1" xmlns="http://www.w3.org/2000/svg" width="156" height="197">
<path d="M0 0 C5.35231274 2.93102841 6.87125915 7.59466784 9 13 C9.495 13.99 9.495 13.99 10 15 C10.77429463 22.2267499 8.56759635 26.78218921 5 33 C5.59167969 33.08636719 6.18335937 33.17273438 6.79296875 33.26171875 C12.32843005 34.24600143 15.47766254 35.33808277 19 40 C20.53338221 42.88052366 22 45.67479422 22 49 C22.49628906 48.73445313 22.99257812 48.46890625 23.50390625 48.1953125 C36.91236586 41.22393122 51.40545108 40.83692286 66 44 C66.99 44.66 67.98 45.32 69 46 C68.7728123 59.17688638 60.91776059 70.78340793 52 80 C46.24672489 85 46.24672489 85 43 85 C43 86.65 43 88.3 43 90 C51.06542814 89.0715057 58.1231508 87.49806488 65 83 C65.33 82.34 65.66 81.68 66 81 C64.824375 80.62875 64.824375 80.62875 63.625 80.25 C60.67682892 78.84610901 60.0975223 77.99324263 59 75 C59.99 73.515 59.99 73.515 61 72 C66.44208234 72.34013015 69.93668198 75.70296528 74 79 C73.89633782 83.25014924 72.83655409 85.59191791 70 88.625 C61.61210554 96.31673318 50.38809159 98.30747157 39.25 97.9375 C36.01950118 97.83801 33.75859024 98.3281759 30.75 99.5 C22.69591984 102.43638339 14.47050134 101.52264286 6.3125 99.4375 C-1.09583482 97.5475277 -6.99521383 98.22985846 -14.3125 100.0625 C-22.37424933 101.9492924 -30.47041492 102.06077769 -38.0625 98.66015625 C-41.11302805 97.62076262 -44.03709955 97.91848829 -47.2265625 98.01171875 C-58.95540594 97.96216026 -69.43703466 95.14525971 -78 87 C-80 84 -80 84 -80.5625 81.6875 C-79.78129387 77.95507073 -77.88521572 76.54505821 -74.94921875 74.234375 C-72.29434892 72.55313478 -70.13292796 72 -67 72 C-66.34 72.66 -65.68 73.32 -65 74 C-65.0625 75.9375 -65.0625 75.9375 -66 78 C-68.5625 79.75 -68.5625 79.75 -71 81 C-70.334161 84.02003035 -70.334161 84.02003035 -68.35546875 85.09765625 C-62.03754726 87.90941591 -55.84150992 89.12021192 -49 90 C-49 88.35 -49 86.7 -49 85 C-49.72316406 84.7628125 -50.44632813 84.525625 -51.19140625 84.28125 C-63.13612953 78.83219682 -69.28392063 65.14573411 -74.1171875 53.76171875 C-75.02105526 50.93413245 -75.41492225 48.93987598 -75 46 C-66.66229533 40.44153022 -52.46101813 41.44506415 -43 43 C-38.90054011 44.10871756 -34.95891273 45.46998542 -31 47 C-30.01 47.33 -29.02 47.66 -28 48 C-27.67128906 46.98679687 -27.67128906 46.98679687 -27.3359375 45.953125 C-25.78337497 41.58575398 -24.66159449 38.60278609 -21.1875 35.4375 C-17.73357333 33.8798468 -14.76515869 33.3012127 -11 33 C-11.3609375 32.35933594 -11.721875 31.71867187 -12.09375 31.05859375 C-17.01486046 21.88619065 -17.01486046 21.88619065 -16 16 C-10.26780865 -1.71130144 -10.26780865 -1.71130144 0 0 Z M-7.8125 14 C-10.19965108 17.27287438 -10.19965108 17.27287438 -10.125 21 C-9.32690126 25.17223894 -7.27641293 27.31166119 -4 30 C-0.52633793 29.06117241 0.78532695 28.30769804 2.875 25.3125 C4.22995603 21.32290724 4.14368795 19.04103077 3 15 C1.30835778 12.95970404 1.30835778 12.95970404 -1 12 C-5.03188135 11.61365081 -5.03188135 11.61365081 -7.8125 14 Z M-6 35 C-6 36.32 -6 37.64 -6 39 C-4.15274948 39.69159401 -4.15274948 39.69159401 -2 40 C-1.01 39.34 -0.02 38.68 1 38 C0.67 37.01 0.34 36.02 0 35 C-1.98 35 -3.96 35 -6 35 Z M-18.875 41.0625 C-20.64782183 44.11569315 -19.69235306 46.66411708 -19 50 C-18.195625 50.20625 -17.39125 50.4125 -16.5625 50.625 C-14 52 -14 52 -13.1875 54.4375 C-12.8038708 61.72645488 -12.71959375 68.79771484 -14 76 C-12.68 76.33 -11.36 76.66 -10 77 C-10.33 78.98 -10.66 80.96 -11 83 C-11.680625 82.7834375 -12.36125 82.566875 -13.0625 82.34375 C-19.25878797 80.56396516 -25.08085591 79.67800211 -31.5 79.625 C-32.18191406 79.61146484 -32.86382812 79.59792969 -33.56640625 79.58398438 C-36.64290856 79.61150776 -38.73221794 79.84845774 -41.4296875 81.375 C-43.18858188 82.93011057 -43.18858188 82.93011057 -43.625 85.375 C-42.85901566 88.59213422 -41.39002401 89.97978356 -38.765625 91.9296875 C-31.87899717 96.10432472 -23.63722408 95.75565947 -16.0546875 93.9765625 C-14.326019 93.53419126 -12.59948231 93.08341887 -10.875 92.625 C-2.26861256 90.44569361 6.16819929 88.90895645 15 88 C14.7215625 89.4540625 14.7215625 89.4540625 14.4375 90.9375 C14.293125 91.948125 14.14875 92.95875 14 94 C15.52271991 95.52271991 16.87935159 95.20581982 19 95.25 C25.16018241 95.17140118 30.56155979 93.78422454 35.5625 90.125 C37.16192346 88.05925955 37.16192346 88.05925955 37.5 85.4375 C37.21397635 82.9235544 37.21397635 82.9235544 35.40234375 81.37109375 C27.75996445 77.00934557 15.27336798 80.27551446 7.31640625 82.34375 C6.55199219 82.5603125 5.78757813 82.776875 5 83 C4.505 80.03 4.505 80.03 4 77 C5.98 76.505 5.98 76.505 8 76 C7.91621094 74.865625 7.83242187 73.73125 7.74609375 72.5625 C7.64282913 71.04169378 7.53998716 69.52085881 7.4375 68 C7.35338867 66.88431641 7.35338867 66.88431641 7.26757812 65.74609375 C6.93652715 60.66997882 7.22836955 56.02988738 8 51 C9.98 51.33 11.96 51.66 14 52 C13.67 52.66 13.34 53.32 13 54 C12.90535589 55.3398391 12.86927851 56.68416768 12.8671875 58.02734375 C12.86589844 58.81947266 12.86460938 59.61160156 12.86328125 60.42773438 C12.86908203 61.67006836 12.86908203 61.67006836 12.875 62.9375 C12.87113281 63.76185547 12.86726563 64.58621094 12.86328125 65.43554688 C12.86521484 66.62567383 12.86521484 66.62567383 12.8671875 67.83984375 C12.86887939 68.92833618 12.86887939 68.92833618 12.87060547 70.03881836 C12.93110986 72.21513864 12.93110986 72.21513864 14 75 C19.94 74.505 19.94 74.505 26 74 C26 70.45467066 25.56666548 70.27153165 23.1875 67.875 C17.63224843 61.62860211 16.57480924 53.57679973 14.84375 45.6015625 C13.96241206 42.88410386 13.25996593 41.70488658 11 40 C8.54290625 39.41649495 8.54290625 39.41649495 6 40 C5.38125 40.639375 4.7625 41.27875 4.125 41.9375 C1.17492997 44.80080327 -0.94616401 44.92888007 -5 45 C-7.92346557 43.63571607 -9.72750909 42.27249091 -12 40 C-14.79844834 39.64122457 -16.403308 39.66187453 -18.875 41.0625 Z M-21 45 C-21 46.65 -21 48.3 -21 50 C-20.67 50 -20.34 50 -20 50 C-20 48.35 -20 46.7 -20 45 C-20.33 45 -20.66 45 -21 45 Z M-61.8125 49.5 C-62.60269531 49.5928125 -63.39289062 49.685625 -64.20703125 49.78125 C-65.09455078 49.88953125 -65.09455078 49.88953125 -66 50 C-67.16933409 53.50800227 -66.55811861 54.56714077 -65.00415039 57.78662109 C-64.69340576 58.39328613 -64.38266113 58.99995117 -64.0625 59.625 C-63.74982178 60.24584473 -63.43714355 60.86668945 -63.11499023 61.50634766 C-60.1927537 67.06832585 -56.48403064 71.59749719 -52 76 C-51.62875 75.505 -51.2575 75.01 -50.875 74.5 C-49 73 -49 73 -46.16796875 73.0703125 C-41.97782114 72.97731292 -40.47883629 71.55115034 -37.3125 68.875 C-36.38050781 68.10929687 -35.44851562 67.34359375 -34.48828125 66.5546875 C-31.57420507 63.56284163 -29 60.33900315 -29 56 C-39.61154625 50.52711591 -49.89919133 48.07751538 -61.8125 49.5 Z M-22 50 C-22.17015625 50.79664063 -22.3403125 51.59328125 -22.515625 52.4140625 C-23.89752801 58.4562129 -25.11659221 63.14574027 -29 68 C-29.5775 68.78375 -30.155 69.5675 -30.75 70.375 C-31.1625 70.91125 -31.575 71.4475 -32 72 C-31.67 72.66 -31.34 73.32 -31 74 C-28.41394668 74.4683265 -28.41394668 74.4683265 -25.4375 74.625 C-24.42558594 74.69976562 -23.41367187 74.77453125 -22.37109375 74.8515625 C-21.19740234 74.92503906 -21.19740234 74.92503906 -20 75 C-17.60099487 67.80298461 -18.15650868 61.47743661 -19 54 C-19.33 54 -19.66 54 -20 54 C-20 55.98 -20 57.96 -20 60 C-20.66 60 -21.32 60 -22 60 C-21.67 59.01 -21.34 58.02 -21 57 C-20.96045766 54.66700175 -20.95598268 52.33291811 -21 50 C-21.33 50 -21.66 50 -22 50 Z M24 56 C23.67 56.66 23.34 57.32 23 58 C25.60087946 64.50219864 30.86871523 69.76201315 37 73 C39.77859986 73.27430419 41.29060242 72.86470135 44 72 C44.66 73.32 45.32 74.64 46 76 C52.46204194 69.50923787 58.03172788 62.80157213 61 54 C60.74984901 51.72522815 60.74984901 51.72522815 60 50 C46.99755605 48.57665554 35.28837938 48.61640594 24 56 Z " fill="#CC6527" transform="translate(80,61)"/>
<path d="M0 0 C1 1 1 1 1 4.6875 C-0.53553876 16.76067351 -9.06530611 28.97326414 -18.05859375 36.7890625 C-22.37273045 40 -22.37273045 40 -25 40 C-25 41.65 -25 43.3 -25 45 C-16.93457186 44.0715057 -9.8768492 42.49806488 -3 38 C-2.505 37.01 -2.505 37.01 -2 36 C-2.78375 35.7525 -3.5675 35.505 -4.375 35.25 C-7.32317108 33.84610901 -7.9024777 32.99324263 -9 30 C-8.34 29.01 -7.68 28.02 -7 27 C-1.55791766 27.34013015 1.93668198 30.70296528 6 34 C5.89633782 38.25014924 4.83655409 40.59191791 2 43.625 C-5.75109835 50.73278857 -16.19900715 53.31530959 -26.609375 52.89453125 C-28.41734221 52.67334377 -30.21258897 52.35047275 -32 52 C-32.144375 51.21625 -32.28875 50.4325 -32.4375 49.625 C-32.87798925 47.03578982 -32.87798925 47.03578982 -34 45 C-33.34 45 -32.68 45 -32 45 C-31.74984127 41.58357241 -31.74984127 41.58357241 -32 38 C-37.56972848 34.28684768 -46.35425687 35.41988175 -52.84765625 36.453125 C-54.90677238 36.93438754 -56.95458142 37.46349677 -59 38 C-60.32 38 -61.64 38 -63 38 C-63.33 36.02 -63.66 34.04 -64 32 C-62.515 31.505 -62.515 31.505 -61 31 C-61.14308594 29.2984375 -61.14308594 29.2984375 -61.2890625 27.5625 C-61.40171315 26.04171626 -61.51365439 24.52087985 -61.625 23 C-61.68945312 22.25621094 -61.75390625 21.51242188 -61.8203125 20.74609375 C-62.19267949 15.39331828 -61.53197383 11.14556096 -60 6 C-57.03 6.495 -57.03 6.495 -54 7 C-54 14.59 -54 22.18 -54 30 C-53.01 29.505 -53.01 29.505 -52 29 C-50.29636178 28.77377919 -48.58671299 28.59111527 -46.875 28.4375 C-45.96492188 28.35371094 -45.05484375 28.26992187 -44.1171875 28.18359375 C-43.41851562 28.12300781 -42.71984375 28.06242187 -42 28 C-42.40992187 27.45730469 -42.81984375 26.91460937 -43.2421875 26.35546875 C-44.05042969 25.28232422 -44.05042969 25.28232422 -44.875 24.1875 C-45.40867187 23.47980469 -45.94234375 22.77210938 -46.4921875 22.04296875 C-50.02500279 17.2562786 -50.02500279 17.2562786 -49.75 14.4375 C-49 12 -49 12 -47 10 C-45.01986343 12.38982 -43.20453477 14.59093047 -41.8125 17.375 C-38.96704606 21.49600226 -35.32174579 24.48435693 -31 27 C-27.20680591 27.3359512 -27.20680591 27.3359512 -24 27 C-23.34 27.99 -22.68 28.98 -22 30 C-15.80808788 23.77665686 -8 15.2727683 -8 6 C-21.91680465 4.4765628 -32.49387403 5.54999015 -45 12 C-46 11 -46 11 -46.0625 7.4375 C-46.041875 6.303125 -46.02125 5.16875 -46 4 C-31.59721107 -3.70642732 -15.66392525 -5.14897291 0 0 Z " fill="#CC6526" transform="translate(148,106)"/>
<path d="M0 0 C1.10522979 0.00092179 2.21045958 0.00184359 3.34918118 0.00279331 C5.24442783 0.00073132 5.24442783 0.00073132 7.1779623 -0.00137234 C8.59110951 0.00216728 10.00425648 0.00580209 11.41740322 0.00952244 C12.89536442 0.0098043 14.37332577 0.00964659 15.85128689 0.00907993 C19.87590486 0.00879193 23.9004933 0.01468912 27.92510438 0.02165389 C32.12651023 0.02788694 36.32791668 0.02849119 40.52932644 0.0296793 C48.49080915 0.03279276 56.4522782 0.04100634 64.41375488 0.05102879 C73.47527247 0.06218947 82.5367907 0.06770026 91.59831345 0.07272422 C110.24366559 0.08318894 128.88900499 0.10078867 147.53434658 0.12304783 C148.52434658 2.10304783 148.52434658 2.10304783 149.53434658 4.12304783 C148.87434658 5.11304783 148.21434658 6.10304783 147.53434658 7.12304783 C144.95123196 7.49777794 144.95123196 7.49777794 141.61271572 7.49726963 C139.71974255 7.5077911 139.71974255 7.5077911 137.78852749 7.51852512 C136.38218436 7.51109673 134.9758428 7.50336556 133.56950283 7.49536228 C132.09463653 7.49778913 130.61977187 7.50150741 129.14491177 7.5064249 C125.1325398 7.51585231 121.12041099 7.50639311 117.10805798 7.49309278 C112.91559963 7.48180081 108.72315365 7.48588403 104.53068447 7.4878397 C97.48922139 7.48872339 90.44785444 7.47762662 83.40641689 7.45922947 C75.25731317 7.43806067 67.10835034 7.43455151 58.9592247 7.44079143 C51.13063916 7.44647975 43.30210341 7.44084572 35.47352505 7.42961788 C32.1370289 7.42496483 28.80056312 7.42410109 25.4640646 7.42620373 C21.53738133 7.42808293 17.61084212 7.42001126 13.6841917 7.40414333 C12.24018481 7.3998891 10.79616332 7.39905754 9.35215282 7.40183353 C7.38675439 7.40503949 5.42134751 7.39477789 3.45597744 7.38374424 C2.35426708 7.38169137 1.25255672 7.3796385 0.1174612 7.37752342 C-2.46565342 7.12304783 -2.46565342 7.12304783 -4.46565342 5.12304783 C-3.71754361 0.1855231 -3.71754361 0.1855231 0 0 Z " fill="#E8C461" transform="translate(5.465653419494629,166.87695217132568)"/>
<path d="M0 0 C43.89 0 87.78 0 133 0 C133.99 1.98 133.99 1.98 135 4 C133.26995013 6.18817055 132.39130499 6.93914178 129.59056759 7.37473011 C128.14955354 7.3744785 128.14955354 7.3744785 126.6794281 7.3742218 C125.57594025 7.38123611 124.47245239 7.38825043 123.33552551 7.39547729 C121.51899727 7.38401169 121.51899727 7.38401169 119.66577148 7.37231445 C118.39082825 7.37596512 117.11588501 7.37961578 115.80230713 7.38337708 C112.30442767 7.39278958 108.80682785 7.38335835 105.30897021 7.37004495 C101.65170414 7.35873871 97.99445199 7.36283725 94.33717346 7.36479187 C88.1961713 7.365675 82.05527949 7.35458966 75.91430664 7.33618164 C68.80866063 7.31500427 61.70317621 7.311506 54.59750503 7.3177436 C47.76790887 7.32343247 40.93836975 7.31779786 34.10878181 7.30657005 C31.19932058 7.30191868 28.28989417 7.30105252 25.38043022 7.3031559 C21.32181154 7.30538424 17.26342052 7.29095046 13.20483398 7.2746582 C11.99179092 7.27713562 10.77874786 7.27961304 9.52894592 7.28216553 C7.87794388 7.27153831 7.87794388 7.27153831 6.19358826 7.26069641 C5.23328925 7.25864354 4.27299025 7.25659067 3.28359127 7.25447559 C1 7 1 7 -1 5 C-0.67 3.35 -0.34 1.7 0 0 Z " fill="#E8C362" transform="translate(11,179)"/>
<path d="M0 0 C1.41326065 -0.01062721 1.41326065 -0.01062721 2.85507202 -0.02146912 C4.40274765 -0.01775299 4.40274765 -0.01775299 5.98168945 -0.01396179 C7.61371811 -0.02162819 7.61371811 -0.02162819 9.27871704 -0.02944946 C12.88419049 -0.0433783 16.48947351 -0.04238636 20.0949707 -0.04008484 C22.59456453 -0.04396962 25.0941577 -0.04830384 27.59375 -0.05307007 C32.83603544 -0.06053912 38.07827134 -0.06037356 43.32055664 -0.05497742 C49.38217534 -0.04893393 55.44356213 -0.06125777 61.50514126 -0.08254749 C67.33520504 -0.10227189 73.16517773 -0.10533923 78.99526978 -0.10181236 C81.47686305 -0.10232703 83.95845991 -0.1075918 86.44003296 -0.11762428 C89.90462299 -0.12991243 93.36867109 -0.12324286 96.83325195 -0.11161804 C97.86503571 -0.11926178 98.89681946 -0.12690552 99.95986938 -0.13478088 C101.37313004 -0.12425941 101.37313004 -0.12425941 102.81494141 -0.11352539 C103.63420609 -0.11369313 104.45347076 -0.11386087 105.29756165 -0.1140337 C107.4074707 0.26069641 107.4074707 0.26069641 109.25700378 1.53408527 C109.82648491 2.38875779 109.82648491 2.38875779 110.4074707 3.26069641 C110.0774707 4.58069641 109.7474707 5.90069641 109.4074707 7.26069641 C71.1274707 7.26069641 32.8474707 7.26069641 -6.5925293 7.26069641 C-6.9225293 5.61069641 -7.2525293 3.96069641 -7.5925293 2.26069641 C-4.41431697 0.14188819 -3.63812662 0.00911622 0 0 Z " fill="#E7C462" transform="translate(26.592529296875,189.7393035888672)"/>
<path d="M0 0 C1 1 1 1 1 4.6875 C-0.53553876 16.76067351 -9.06530611 28.97326414 -18.05859375 36.7890625 C-22.37273045 40 -22.37273045 40 -25 40 C-25.66 38.02 -26.32 36.04 -27 34 C-26.34773438 33.46632812 -25.69546875 32.93265625 -25.0234375 32.3828125 C-18.89073278 27.1546365 -14.68435464 22.14983672 -11 15 C-10.071875 13.2984375 -10.071875 13.2984375 -9.125 11.5625 C-7.79900497 9.00860743 -7.79900497 9.00860743 -8 6 C-21.91680465 4.4765628 -32.49387403 5.54999015 -45 12 C-46 11 -46 11 -46.0625 7.4375 C-46.041875 6.303125 -46.02125 5.16875 -46 4 C-31.59721107 -3.70642732 -15.66392525 -5.14897291 0 0 Z " fill="#4B7542" transform="translate(148,106)"/>
<path d="M0 0 C0.40843923 2.71203652 0.13336867 5.2437142 0 8 C-0.72703125 7.66226563 -1.4540625 7.32453125 -2.203125 6.9765625 C-14.46648015 1.53666394 -24.70111467 0.54420486 -38 2 C-35.27664236 11.772048 -30.94102318 19.83104183 -23 26.3125 C-20.69140625 28.20703125 -20.69140625 28.20703125 -19 30 C-18.9375 33.5 -18.9375 33.5 -20 36 C-25.25188043 35.08004755 -28.26926546 31.5834687 -32 28 C-32.60328125 27.43410156 -33.2065625 26.86820313 -33.828125 26.28515625 C-37.83957113 22.15625786 -40.41389032 17.64971155 -42.875 12.5 C-43.17349854 11.88318359 -43.47199707 11.26636719 -43.77954102 10.63085938 C-45.83989982 6.08137576 -46.57087286 1.97347357 -47 -3 C-34.80905063 -11.12729958 -11.50794451 -7.67196301 0 0 Z " fill="#4B7743" transform="translate(52,110)"/>
<path d="M0 0 C0 1.98 0 3.96 0 6 C7.21471629 6.35482211 13.12418702 5.1591338 20 3 C22 5 22 5 22 6.9375 C20.46949262 10.09417148 18.16395377 10.69719551 15 12 C7.33974474 14.37336968 -1.06641061 13.41501016 -8.6875 11.4375 C-15.61059691 9.65440491 -21.15529268 10.21536585 -28.0625 11.625 C-28.701875 11.74875 -29.34125 11.8725 -30 12 C-31 11 -31 11 -31.0625 8.4375 C-31.041875 7.633125 -31.02125 6.82875 -31 6 C-28.01246574 4.95989548 -25.01096221 3.97015038 -22 3 C-21.12214844 2.71382812 -20.24429688 2.42765625 -19.33984375 2.1328125 C-12.76384197 0.14581916 -6.85181076 -0.35783151 0 0 Z " fill="#CD6526" transform="translate(95,149)"/>
<path d="M0 0 C3.79603009 3.1058428 6.56560228 6.22187502 7.3359375 11.1484375 C7.43145621 16.5930041 6.73277479 19.74878427 3 24 C0.47104101 25.93886856 -0.72955988 26.00575405 -3.9375 25.9375 C-7.75683706 24.76831519 -9.43196498 23.0082696 -12 20 C-13.61491293 16.77017415 -13.45300335 13.50159348 -13 10 C-10.6343523 3.30123524 -7.81227599 -1.09371864 0 0 Z M-4 7 C-5.98362069 9.91708924 -5.9876191 11.12380904 -5.625 14.75 C-5.41875 15.8225 -5.2125 16.895 -5 18 C-2.68985907 17.11577832 -2.68985907 17.11577832 -1.8125 14.1875 C-1.03578549 11.14038924 -0.89903601 9.86250637 -2 7 C-2.66 7 -3.32 7 -4 7 Z M-1 11 C-1 12.98 -1 14.96 -1 17 C-0.67 17 -0.34 17 0 17 C0 15.02 0 13.04 0 11 C-0.33 11 -0.66 11 -1 11 Z " fill="#CD6425" transform="translate(80,33)"/>
<path d="M0 0 C0.33 1.32 0.66 2.64 1 4 C-0.98 5.32 -2.96 6.64 -5 8 C-4.33652362 11.08604374 -4.33652362 11.08604374 -2.07421875 12.1328125 C-1.28660156 12.46023437 -0.49898437 12.78765625 0.3125 13.125 C1.09238281 13.45757812 1.87226563 13.79015625 2.67578125 14.1328125 C6.57545851 15.58781813 9.2403363 16.03399674 13.375 15.5625 C16.51372376 15.4846804 17.58099836 15.61171946 19.91796875 17.77734375 C21.41220108 19.7968644 22.75777273 21.81757719 24 24 C13.77811401 26.00429137 3.01447711 24.30690991 -6 19 C-9.89718697 16.27868841 -13.39323556 13.49447601 -14.5625 8.6875 C-13.66941187 4.42052338 -10.4376328 2.45767413 -7 0 C-4.3333581 -1.33332095 -2.83319697 -0.67102033 0 0 Z " fill="#4A7443" transform="translate(14,134)"/>
<path d="M0 0 C5.44208234 0.34013015 8.93668198 3.70296528 13 7 C12.89633782 11.25014924 11.83655409 13.59191791 9 16.625 C1.24890165 23.73278857 -9.19900715 26.31530959 -19.609375 25.89453125 C-21.41734221 25.67334377 -23.21258897 25.35047275 -25 25 C-24.67 24.34 -24.34 23.68 -24 23 C-23.34 23 -22.68 23 -22 23 C-21.87625 22.360625 -21.7525 21.72125 -21.625 21.0625 C-21.41875 20.381875 -21.2125 19.70125 -21 19 C-18.3570014 17.6785007 -15.93657996 17.59629481 -13 17.25 C-6.68045855 16.32313392 -1.33732819 14.55821879 4 11 C4.33 10.34 4.66 9.68 5 9 C3.824375 8.62875 3.824375 8.62875 2.625 8.25 C-0.32317108 6.84610901 -0.9024777 5.99324263 -2 3 C-1.34 2.01 -0.68 1.02 0 0 Z " fill="#4B7542" transform="translate(141,133)"/>
<path d="M0 0 C3.92100683 8.82226536 3.2754857 17.54165757 3 27 C0.625 27.625 0.625 27.625 -2 28 C-4.35358251 25.64641749 -4.27871904 25.07031606 -4.4140625 21.8671875 C-4.45273438 21.06152344 -4.49140625 20.25585938 -4.53125 19.42578125 C-4.5621875 18.58402344 -4.593125 17.74226563 -4.625 16.875 C-4.66367188 16.02550781 -4.70234375 15.17601563 -4.7421875 14.30078125 C-4.83656494 12.20088316 -4.91937586 10.10047109 -5 8 C-6.10859375 8.60070312 -7.2171875 9.20140625 -8.359375 9.8203125 C-9.8224769 10.58937888 -11.28604311 11.35756239 -12.75 12.125 C-13.47960937 12.52332031 -14.20921875 12.92164062 -14.9609375 13.33203125 C-15.66992188 13.69941406 -16.37890625 14.06679687 -17.109375 14.4453125 C-17.75874023 14.79094238 -18.40810547 15.13657227 -19.07714844 15.49267578 C-21 16 -21 16 -23.24316406 15.09716797 C-23.82291992 14.73510254 -24.40267578 14.37303711 -25 14 C-25 11.8125 -25 11.8125 -24 9 C-17.85741409 3.64328017 -8.1926335 -0.86238247 0 0 Z " fill="#497643" transform="translate(122,75)"/>
<path d="M0 0 C6.79086187 1.00234124 15.85575198 5.16825198 20.75 10.0625 C20.875 12.6875 20.875 12.6875 20.75 15.0625 C18.45456573 15.85071819 17.16991018 16.19808044 14.82714844 15.44165039 C14.1777832 15.10125732 13.52841797 14.76086426 12.859375 14.41015625 C12.15039062 14.04599609 11.44140625 13.68183594 10.7109375 13.30664062 C9.98132813 12.91669922 9.25171875 12.52675781 8.5 12.125 C7.75492188 11.73892578 7.00984375 11.35285156 6.2421875 10.95507812 C4.40585606 10.00159834 2.57715793 9.03344323 0.75 8.0625 C0.68941406 9.33867188 0.62882812 10.61484375 0.56640625 11.9296875 C0.48200432 13.59897016 0.39735614 15.26824037 0.3125 16.9375 C0.25352539 18.20013672 0.25352539 18.20013672 0.19335938 19.48828125 C0.15146484 20.29394531 0.10957031 21.09960938 0.06640625 21.9296875 C0.02974854 22.67331543 -0.00690918 23.41694336 -0.04467773 24.18310547 C-0.25 26.0625 -0.25 26.0625 -1.25 28.0625 C-6.125 27.1875 -6.125 27.1875 -7.25 26.0625 C-7.69869401 17.88166045 -7.65452339 9.94399332 -5.25 2.0625 C-3.25 0.0625 -3.25 0.0625 0 0 Z " fill="#487542" transform="translate(36.25,74.9375)"/>
<path d="M0 0 C43.23 0 86.46 0 131 0 C131 0.33 131 0.66 131 1 C124.24602882 1.8735062 117.66158944 2.14318202 110.85571289 2.12939453 C109.77806168 2.13114685 108.70041046 2.13289917 107.59010315 2.13470459 C104.05093748 2.13908225 100.51182237 2.13619932 96.97265625 2.1328125 C94.4984079 2.13348676 92.02415962 2.13445781 89.5499115 2.13571167 C84.3728675 2.13718315 79.19584081 2.13505192 74.01879883 2.13037109 C67.40050662 2.12467715 60.78225499 2.12795421 54.16396427 2.13394356 C49.0568766 2.13756654 43.94979846 2.13640255 38.84271049 2.13381577 C36.40319247 2.13315115 33.96367357 2.13395858 31.52415657 2.13629532 C28.10730846 2.13885006 24.69052497 2.13494148 21.27368164 2.12939453 C20.27649109 2.13141876 19.27930054 2.13344299 18.25189209 2.13552856 C12.11107704 2.11716831 6.09756474 1.72919481 0 1 C0 0.67 0 0.34 0 0 Z " fill="#FFD168" transform="translate(12,187)"/>
<path d="M0 0 C2.6321504 1.9741128 3.78708789 3.39167968 4.875 6.5 C5.01939236 9.38784725 4.6316442 10.63411591 3 13 C-0.49124017 15.32749345 -1.89222251 15.50299316 -6 15 C-8.375 13.4375 -8.375 13.4375 -10 11 C-10.5625 7.5 -10.5625 7.5 -10 4 C-6.98538624 0.64085896 -4.52721473 -0.92865943 0 0 Z " fill="#CD6426" transform="translate(80,15)"/>
<path d="M0 0 C49.5 0 99 0 150 0 C150 0.33 150 0.66 150 1 C100.5 1 51 1 0 1 C0 0.67 0 0.34 0 0 Z " fill="#FFBF7E" transform="translate(3,175)"/>
<path d="M0 0 C49.5 0 99 0 150 0 C150 0.33 150 0.66 150 1 C100.5 1 51 1 0 1 C0 0.67 0 0.34 0 0 Z " fill="#FEBF67" transform="translate(3,165)"/>
<path d="M0 0 C43.89 0 87.78 0 133 0 C133 0.33 133 0.66 133 1 C89.11 1 45.22 1 0 1 C0 0.67 0 0.34 0 0 Z " fill="#FFFC7D" transform="translate(11,177)"/>
<path d="M0 0 C3.0625 0.3125 3.0625 0.3125 5 1.4375 C6.0625 3.3125 6.0625 3.3125 5.9375 6.375 C5.0625 9.3125 5.0625 9.3125 2.0625 11.3125 C-1 11.125 -1 11.125 -3.9375 10.3125 C-5.9375 7.3125 -5.9375 7.3125 -5.6875 4.75 C-4.58727173 1.17425813 -3.7416128 0.39804391 0 0 Z " fill="#CC6626" transform="translate(76.9375,-0.3125)"/>
<path d="M0 0 C0.6875 1.8125 0.6875 1.8125 1 4 C0 5.6875 0 5.6875 -2 7 C-5.5625 7.8125 -5.5625 7.8125 -9 8 C-9.66 7.34 -10.32 6.68 -11 6 C-11 4.0625 -11 4.0625 -10 2 C-6.45371784 -0.28538184 -4.05371308 -1.71503246 0 0 Z " fill="#E9C360" transform="translate(59,44)"/>
<path d="M0 0 C4.875 0.875 4.875 0.875 6 2 C6.26293056 6.03160191 6.29404844 7.55892734 4 11 C1.375 11.1875 1.375 11.1875 -1 11 C-2.23076923 4.6 -2.23076923 4.6 -1.0625 1.5625 C-0.711875 1.046875 -0.36125 0.53125 0 0 Z " fill="#EAC366" transform="translate(15,88)"/>
<path d="M0 0 C1.65 0.33 3.3 0.66 5 1 C5.6875 2.625 5.6875 2.625 6 5 C4.5625 8.25 4.5625 8.25 3 11 C1.35 10.67 -0.3 10.34 -2 10 C-2.6875 8.375 -2.6875 8.375 -3 6 C-1.5625 2.75 -1.5625 2.75 0 0 Z " fill="#E8C463" transform="translate(19,73)"/>
<path d="M0 0 C3.60296594 -0.41176754 4.78402067 -0.1535853 7.8125 2 C8.534375 2.66 9.25625 3.32 10 4 C9.67 5.32 9.34 6.64 9 8 C6.8125 8.75 6.8125 8.75 4 9 C1.1875 7.0625 1.1875 7.0625 -1 5 C-0.67 3.35 -0.34 1.7 0 0 Z " fill="#E6C465" transform="translate(110,50)"/>
<path d="M0 0 C1.84765625 0.33984375 1.84765625 0.33984375 4.0625 0.9375 C5.16271484 1.22947266 5.16271484 1.22947266 6.28515625 1.52734375 C7.13400391 1.76130859 7.13400391 1.76130859 8 2 C8.625 4.375 8.625 4.375 9 7 C8.34 7.66 7.68 8.32 7 9 C0.53846154 8.53846154 0.53846154 8.53846154 -2 6 C-1.44444444 1.44444444 -1.44444444 1.44444444 0 0 Z " fill="#EBC363" transform="translate(97,43)"/>
<path d="M0 0 C2.25 -0.375 2.25 -0.375 5 0 C7.3125 3 7.3125 3 9 6 C8.34 7.32 7.68 8.64 7 10 C3.96846314 9.67226629 2.38426897 9.35865103 0.125 7.25 C-1.29737468 4.40525065 -0.91172698 2.98383376 0 0 Z " fill="#E9C461" transform="translate(122,60)"/>
<path d="M0 0 C2.5 0.3125 2.5 0.3125 5 1 C6.36952673 3.73905345 6.12621361 5.97087332 6 9 C5.67 9.66 5.34 10.32 5 11 C3.33388095 11.042721 1.66617115 11.04063832 0 11 C-1 10 -1 10 -1.1328125 7.96875 C-1.13023437 7.1540625 -1.12765625 6.339375 -1.125 5.5 C-1.12757813 4.6853125 -1.13015625 3.870625 -1.1328125 3.03125 C-1 1 -1 1 0 0 Z " fill="#E9C361" transform="translate(135,88)"/>
<path d="M0 0 C2.5 0.0625 2.5 0.0625 5 1 C6.59642719 3.68490027 7.12740282 5.21434929 6.625 8.3125 C6.41875 8.869375 6.2125 9.42625 6 10 C4.68 10.33 3.36 10.66 2 11 C-0.47524576 8.09427672 -1.69670231 5.84177074 -2 2 C-1.34 1.34 -0.68 0.68 0 0 Z " fill="#E8C360" transform="translate(131,73)"/>
<path d="M0 0 C1.65 0.33 3.3 0.66 5 1 C5.36554789 4.28993102 5.26218503 5.63099885 3.3125 8.375 C1 10 1 10 -1.75 9.75 C-2.4925 9.5025 -3.235 9.255 -4 9 C-4.33 8.01 -4.66 7.02 -5 6 C-3.59554165 3.7363436 -1.8032087 1.9791315 0 0 Z " fill="#ECC362" transform="translate(28,60)"/>
<path d="M0 0 C0.721875 0.103125 1.44375 0.20625 2.1875 0.3125 C2.5175 1.9625 2.8475 3.6125 3.1875 5.3125 C1 7.375 1 7.375 -1.8125 9.3125 C-4.625 9.0625 -4.625 9.0625 -6.8125 8.3125 C-7.1425 7.3225 -7.4725 6.3325 -7.8125 5.3125 C-3.50480769 0.38942308 -3.50480769 0.38942308 0 0 Z " fill="#E9C262" transform="translate(41.8125,49.6875)"/>
<path d="M0 0 C1.65 0.33 3.3 0.66 5 1 C4.67 1.99 4.34 2.98 4 4 C3.34 4 2.68 4 2 4 C1.67 5.32 1.34 6.64 1 8 C0.34 8 -0.32 8 -1 8 C-1.93065133 5.39417629 -2.14917407 4.35801776 -1.0625 1.75 C-0.711875 1.1725 -0.36125 0.595 0 0 Z " fill="#C26B32" transform="translate(118,148)"/>
<path d="M0 0 C0.99 0 1.98 0 3 0 C3.33 3.63 3.66 7.26 4 11 C0.14285714 7.14285714 0.14285714 7.14285714 -1 4 C-0.625 1.75 -0.625 1.75 0 0 Z " fill="#BC6832" transform="translate(99,108)"/>
<path d="M0 0 C0.33 0 0.66 0 1 0 C1 5.61 1 11.22 1 17 C2.32 17.33 3.64 17.66 5 18 C3.35 18 1.7 18 0 18 C0 12.06 0 6.12 0 0 Z " fill="#435443" transform="translate(126,84)"/>
<path d="M0 0 C0.33 0 0.66 0 1 0 C1.33 5.61 1.66 11.22 2 17 C0.02 16.67 -1.96 16.34 -4 16 C-2.68 15.67 -1.36 15.34 0 15 C0 10.05 0 5.1 0 0 Z " fill="#2E4B2E" transform="translate(27,86)"/>
<path d="M0 0 C0.66 0 1.32 0 2 0 C2.45375 0.639375 2.9075 1.27875 3.375 1.9375 C5.21084873 4.2676157 6.12909413 4.60401298 9 5 C8.34 6.32 7.68 7.64 7 9 C5.83037314 7.69013727 4.66437056 6.3770374 3.5 5.0625 C2.8503125 4.33160156 2.200625 3.60070312 1.53125 2.84765625 C0 1 0 1 0 0 Z " fill="#B86D32" transform="translate(31,149)"/>
<path d="M0 0 C0.66 0.66 1.32 1.32 2 2 C1.98252073 4.75589777 1.86136729 7.38786676 1.625 10.125 C1.56828125 10.87910156 1.5115625 11.63320312 1.453125 12.41015625 C1.3115535 14.27418096 1.15700041 16.13721137 1 18 C0.67 18 0.34 18 0 18 C0 12.06 0 6.12 0 0 Z " fill="#DF4C13" transform="translate(94,115)"/>
<path d="M0 0 C0.33 0 0.66 0 1 0 C1 2.64 1 5.28 1 8 C-0.98 7.01 -2.96 6.02 -5 5 C-5 4.67 -5 4.34 -5 4 C-3.35 4 -1.7 4 0 4 C0 2.68 0 1.36 0 0 Z " fill="#587039" transform="translate(51,110)"/>
<path d="M0 0 C4.95 0 9.9 0 15 0 C15 0.33 15 0.66 15 1 C10.05 1 5.1 1 0 1 C0 0.67 0 0.34 0 0 Z " fill="#DE7015" transform="translate(98,142)"/>
<path d="M0 0 C0 0.99 0 1.98 0 3 C2.97 3.495 2.97 3.495 6 4 C6 4.33 6 4.66 6 5 C3.36 5 0.72 5 -2 5 C-2 2 -2 2 0 0 Z " fill="#D6450B" transform="translate(52,129)"/>
<path d="M0 0 C0.33 0 0.66 0 1 0 C1 1.65 1 3.3 1 5 C3.31 5 5.62 5 8 5 C8 5.33 8 5.66 8 6 C5.03 6 2.06 6 -1 6 C-0.67 4.02 -0.34 2.04 0 0 Z " fill="#C95422" transform="translate(96,149)"/>
<path d="M0 0 C4.62 0 9.24 0 14 0 C14 0.33 14 0.66 14 1 C9.38 1 4.76 1 0 1 C0 0.67 0 0.34 0 0 Z " fill="#D57616" transform="translate(42,142)"/>
<path d="M0 0 C0.33 0 0.66 0 1 0 C1 4.62 1 9.24 1 14 C0.67 14 0.34 14 0 14 C0 9.38 0 4.76 0 0 Z " fill="#536A53" transform="translate(116,87)"/>
<path d="M0 0 C0.33 0 0.66 0 1 0 C1 4.62 1 9.24 1 14 C0.67 14 0.34 14 0 14 C0 9.38 0 4.76 0 0 Z " fill="#376937" transform="translate(37,88)"/>
<path d="M0 0 C4.29 0 8.58 0 13 0 C13 0.33 13 0.66 13 1 C8.71 1 4.42 1 0 1 C0 0.67 0 0.34 0 0 Z " fill="#D76113" transform="translate(93,163)"/>
<path d="M0 0 C4.29 0 8.58 0 13 0 C13 0.33 13 0.66 13 1 C8.71 1 4.42 1 0 1 C0 0.67 0 0.34 0 0 Z " fill="#D95B18" transform="translate(48,163)"/>
<path d="M0 0 C3.63 0 7.26 0 11 0 C11 0.33 11 0.66 11 1 C7.37 1 3.74 1 0 1 C0 0.67 0 0.34 0 0 Z " fill="#CC602A" transform="translate(84,147)"/>
<path d="M0 0 C0.33 0 0.66 0 1 0 C1 3.63 1 7.26 1 11 C0.67 11 0.34 11 0 11 C0 7.37 0 3.74 0 0 Z " fill="#B14D2A" transform="translate(69,119)"/>
<path d="M0 0 C2.97 0 5.94 0 9 0 C8.67 0.99 8.34 1.98 8 3 C8 2.34 8 1.68 8 1 C5.36 1 2.72 1 0 1 C0 0.67 0 0.34 0 0 Z " fill="#3D543D" transform="translate(131,112)"/>
<path d="M0 0 C2.97 0 5.94 0 9 0 C9 0.33 9 0.66 9 1 C4.545 1.495 4.545 1.495 0 2 C0 1.34 0 0.68 0 0 Z " fill="#D45021" transform="translate(95,133)"/>
<path d="M0 0 C2.97 0 5.94 0 9 0 C9 0.33 9 0.66 9 1 C4.545 1.495 4.545 1.495 0 2 C0 1.34 0 0.68 0 0 Z " fill="#354E35" transform="translate(14,112)"/>
<path d="M0 0 C1.65 0 3.3 0 5 0 C5 0.66 5 1.32 5 2 C3.35 2 1.7 2 0 2 C0 1.34 0 0.68 0 0 Z " fill="#D45D19" transform="translate(75,12)"/>
<path d="M0 0 C0.33 0.99 0.66 1.98 1 3 C-1.31 3 -3.62 3 -6 3 C-6 2.67 -6 2.34 -6 2 C-4.02 2 -2.04 2 0 2 C0 1.34 0 0.68 0 0 Z " fill="#69754B" transform="translate(29,147)"/>
<path d="M0 0 C2.97 0 5.94 0 9 0 C9 0.33 9 0.66 9 1 C6.03 1 3.06 1 0 1 C0 0.67 0 0.34 0 0 Z " fill="#445927" transform="translate(132,102)"/>
<path d="M0 0 C2.97 0 5.94 0 9 0 C9 0.33 9 0.66 9 1 C6.03 1 3.06 1 0 1 C0 0.67 0 0.34 0 0 Z " fill="#595927" transform="translate(13,102)"/>
<path d="M0 0 C0.33 0 0.66 0 1 0 C1 2.97 1 5.94 1 9 C0.67 9 0.34 9 0 9 C0 6.03 0 3.06 0 0 Z " fill="#BC5E2E" transform="translate(88,42)"/>
<path d="M0 0 C2.64 0 5.28 0 8 0 C8 0.33 8 0.66 8 1 C5.36 1 2.72 1 0 1 C0 0.67 0 0.34 0 0 Z " fill="#3C543C" transform="translate(125,159)"/>
<path d="M0 0 C2.64 0 5.28 0 8 0 C8 0.33 8 0.66 8 1 C5.36 1 2.72 1 0 1 C0 0.67 0 0.34 0 0 Z " fill="#425A42" transform="translate(21,159)"/>
<path d="M0 0 C2.64 0 5.28 0 8 0 C8 0.33 8 0.66 8 1 C5.36 1 2.72 1 0 1 C0 0.67 0 0.34 0 0 Z " fill="#C75F37" transform="translate(51,154)"/>
<path d="M0 0 C0.33 0.66 0.66 1.32 1 2 C2.65 2 4.3 2 6 2 C6 2.33 6 2.66 6 3 C4.02 3 2.04 3 0 3 C0 2.01 0 1.02 0 0 Z " fill="#6C6D43" transform="translate(124,147)"/>
<path d="M0 0 C0.33 0 0.66 0 1 0 C1 2.64 1 5.28 1 8 C0.67 8 0.34 8 0 8 C0 5.36 0 2.72 0 0 Z " fill="#FF0000" transform="translate(84,120)"/>
<path d="M0 0 C2.64 0 5.28 0 8 0 C8 0.33 8 0.66 8 1 C5.36 1 2.72 1 0 1 C0 0.67 0 0.34 0 0 Z " fill="#344434" transform="translate(118,112)"/>
<path d="M0 0 C2.64 0 5.28 0 8 0 C8 0.33 8 0.66 8 1 C5.36 1 2.72 1 0 1 C0 0.67 0 0.34 0 0 Z " fill="#344434" transform="translate(28,112)"/>
<path d="M0 0 C0.598125 0.20625 1.19625 0.4125 1.8125 0.625 C-0.4975 0.955 -2.8075 1.285 -5.1875 1.625 C-2.1875 -0.375 -2.1875 -0.375 0 0 Z " fill="#FFC954" transform="translate(20.1875,85.375)"/>
<path d="M0 0 C0.33 0 0.66 0 1 0 C1 2.64 1 5.28 1 8 C0.67 8 0.34 8 0 8 C0 5.36 0 2.72 0 0 Z " fill="#B96434" transform="translate(91,76)"/>
<path d="M0 0 C0.33 0 0.66 0 1 0 C1 2.64 1 5.28 1 8 C0.67 8 0.34 8 0 8 C0 5.36 0 2.72 0 0 Z " fill="#C9641A" transform="translate(65,43)"/>
<path d="M0 0 C1.32 0.66 2.64 1.32 4 2 C2.35 2.33 0.7 2.66 -1 3 C-0.67 2.01 -0.34 1.02 0 0 Z " fill="#394739" transform="translate(141,130)"/>
<path d="M0 0 C0.66 0.33 1.32 0.66 2 1 C1.67 1.66 1.34 2.32 1 3 C-0.32 2.34 -1.64 1.68 -3 1 C-2.01 0.67 -1.02 0.34 0 0 Z " fill="#547954" transform="translate(12,130)"/>
<path d="M0 0 C0.33 0.99 0.66 1.98 1 3 C1.66 3.33 2.32 3.66 3 4 C2.01 4 1.02 4 0 4 C0 2.68 0 1.36 0 0 Z " fill="#D74212" transform="translate(102,104)"/>
<path d="M0 0 C2.97 0.495 2.97 0.495 6 1 C4.125 1.625 4.125 1.625 2 2 C1.34 1.34 0.68 0.68 0 0 Z " fill="#FFD74B" transform="translate(133,85)"/>
<path d="M0 0 C0.33 0 0.66 0 1 0 C1 2.31 1 4.62 1 7 C0.67 7 0.34 7 0 7 C0 4.69 0 2.38 0 0 Z " fill="#C23C3C" transform="translate(62,77)"/>
<path d="M0 0 C0.33 0 0.66 0 1 0 C1 2.31 1 4.62 1 7 C0.67 7 0.34 7 0 7 C0 4.69 0 2.38 0 0 Z " fill="#AF732A" transform="translate(68,19)"/>
<path d="M0 0 C1.98 0 3.96 0 6 0 C6 0.33 6 0.66 6 1 C4.02 1 2.04 1 0 1 C0 0.67 0 0.34 0 0 Z " fill="#DB7823" transform="translate(74,159)"/>
<path d="M0 0 C1.98 0 3.96 0 6 0 C6 0.33 6 0.66 6 1 C4.02 1 2.04 1 0 1 C0 0.67 0 0.34 0 0 Z " fill="#DB4D15" transform="translate(59,153)"/>
<path d="M0 0 C0.66 0 1.32 0 2 0 C2.33 0.99 2.66 1.98 3 3 C2.01 2.67 1.02 2.34 0 2 C0 1.34 0 0.68 0 0 Z " fill="#414941" transform="translate(9,142)"/>
<path d="M0 0 C0.33 0 0.66 0 1 0 C1 1.98 1 3.96 1 6 C0.67 6 0.34 6 0 6 C0 4.02 0 2.04 0 0 Z " fill="#DF691F" transform="translate(85,129)"/>
<path d="M0 0 C0.33 0 0.66 0 1 0 C1 1.98 1 3.96 1 6 C0.67 6 0.34 6 0 6 C0 4.02 0 2.04 0 0 Z " fill="#E95415" transform="translate(59,128)"/>
<path d="M0 0 C0.33 0 0.66 0 1 0 C1 1.98 1 3.96 1 6 C0.67 6 0.34 6 0 6 C0 4.02 0 2.04 0 0 Z " fill="#E25B00" transform="translate(60,121)"/>
<path d="M0 0 C0.33 0 0.66 0 1 0 C1 1.98 1 3.96 1 6 C0.67 6 0.34 6 0 6 C0 4.02 0 2.04 0 0 Z " fill="#CD4631" transform="translate(85,114)"/>
<path d="M0 0 C0.33 0 0.66 0 1 0 C1 1.98 1 3.96 1 6 C0.67 6 0.34 6 0 6 C0 4.02 0 2.04 0 0 Z " fill="#3C463C" transform="translate(150,107)"/>
<path d="M0 0 C0.33 1.32 0.66 2.64 1 4 C0.01 3.34 -0.98 2.68 -2 2 C-1.34 2 -0.68 2 0 2 C0 1.34 0 0.68 0 0 Z " fill="#B46926" transform="translate(51,105)"/>
<path d="M0 0 C1.65 0 3.3 0 5 0 C3.02 0.99 3.02 0.99 1 2 C0.67 1.34 0.34 0.68 0 0 Z " fill="#E6620A" transform="translate(86,102)"/>
<path d="M0 0 C1.98 0 3.96 0 6 0 C6 0.33 6 0.66 6 1 C4.02 1 2.04 1 0 1 C0 0.67 0 0.34 0 0 Z " fill="#BA6722" transform="translate(74,98)"/>
<path d="M0 0 C0.33 0 0.66 0 1 0 C1 1.98 1 3.96 1 6 C0.67 6 0.34 6 0 6 C0 4.02 0 2.04 0 0 Z " fill="#FFD47F" transform="translate(132,92)"/>
<path d="M0 0 C0.33 0 0.66 0 1 0 C1 1.98 1 3.96 1 6 C0.67 6 0.34 6 0 6 C0 4.02 0 2.04 0 0 Z " fill="#FFFF54" transform="translate(142,91)"/>
<path d="M0 0 C0.33 0 0.66 0 1 0 C1 1.98 1 3.96 1 6 C0.67 6 0.34 6 0 6 C0 4.02 0 2.04 0 0 Z " fill="#FFF023" transform="translate(22,90)"/>
<path d="M0 0 C1.485 0.99 1.485 0.99 3 2 C2.34 2 1.68 2 1 2 C0.67 2.66 0.34 3.32 0 4 C0 2.68 0 1.36 0 0 Z " fill="#516251" transform="translate(38,84)"/>
<path d="M0 0 C1.98 0 3.96 0 6 0 C6 0.33 6 0.66 6 1 C4.02 1 2.04 1 0 1 C0 0.67 0 0.34 0 0 Z " fill="#2D4D2D" transform="translate(116,73)"/>
<path d="M0 0 C1.98 0 3.96 0 6 0 C6 0.33 6 0.66 6 1 C4.02 1 2.04 1 0 1 C0 0.67 0 0.34 0 0 Z " fill="#2D4D2D" transform="translate(32,73)"/>
<path d="M0 0 C1.98 0 3.96 0 6 0 C6 0.33 6 0.66 6 1 C4.02 1 2.04 1 0 1 C0 0.67 0 0.34 0 0 Z " fill="#C96921" transform="translate(74,31)"/>
<path d="M0 0 C1.65 0 3.3 0 5 0 C5 0.33 5 0.66 5 1 C3.35 1 1.7 1 0 1 C0 0.67 0 0.34 0 0 Z " fill="#D45D19" transform="translate(88,162)"/>
<path d="M0 0 C1.65 0 3.3 0 5 0 C5 0.33 5 0.66 5 1 C3.35 1 1.7 1 0 1 C0 0.67 0 0.34 0 0 Z " fill="#D45D43" transform="translate(61,162)"/>
<path d="M0 0 C0.33 0 0.66 0 1 0 C1 1.65 1 3.3 1 5 C0.67 5 0.34 5 0 5 C0 3.35 0 1.7 0 0 Z " fill="#E7730F" transform="translate(115,144)"/>
<path d="M0 0 C0.33 0 0.66 0 1 0 C1 1.65 1 3.3 1 5 C0.67 5 0.34 5 0 5 C0 3.35 0 1.7 0 0 Z " fill="#C3652A" transform="translate(38,144)"/>
<path d="M0 0 C1.65 0 3.3 0 5 0 C5 0.33 5 0.66 5 1 C3.35 1 1.7 1 0 1 C0 0.67 0 0.34 0 0 Z " fill="#B6542E" transform="translate(93,143)"/>
<path d="M0 0 C0.99 0.495 0.99 0.495 2 1 C2 1.66 2 2.32 2 3 C1.34 3 0.68 3 0 3 C0 2.01 0 1.02 0 0 Z " fill="#3B4322" transform="translate(16,135)"/>
<path d="M0 0 C0.33 0 0.66 0 1 0 C1 1.65 1 3.3 1 5 C0.67 5 0.34 5 0 5 C0 3.35 0 1.7 0 0 Z " fill="#D0540C" transform="translate(68,130)"/>
<path d="M0 0 C0 0.99 0 1.98 0 3 C-0.66 2.67 -1.32 2.34 -2 2 C-1.34 1.34 -0.68 0.68 0 0 Z " fill="#FF6500" transform="translate(46,123)"/>
<path d="M0 0 C0.33 0 0.66 0 1 0 C1 1.65 1 3.3 1 5 C0.67 5 0.34 5 0 5 C0 3.35 0 1.7 0 0 Z " fill="#D45D2A" transform="translate(68,113)"/>
<path d="M0 0 C0 0.99 0 1.98 0 3 C-0.66 2.34 -1.32 1.68 -2 1 C-1.34 0.67 -0.68 0.34 0 0 Z " fill="#CA5823" transform="translate(94,110)"/>
<path d="M0 0 C0.33 0 0.66 0 1 0 C1 1.65 1 3.3 1 5 C0.67 5 0.34 5 0 5 C0 3.35 0 1.7 0 0 Z " fill="#5D765D" transform="translate(3,107)"/>
<path d="M0 0 C0.99 0.99 1.98 1.98 3 3 C2.01 2.67 1.02 2.34 0 2 C0 1.34 0 0.68 0 0 Z " fill="#EE4300" transform="translate(68,103)"/>
<path d="M0 0 C1.65 0 3.3 0 5 0 C5 0.33 5 0.66 5 1 C3.35 1 1.7 1 0 1 C0 0.67 0 0.34 0 0 Z " fill="#4C654C" transform="translate(141,103)"/>
<path d="M0 0 C1.65 0 3.3 0 5 0 C5 0.33 5 0.66 5 1 C3.35 1 1.7 1 0 1 C0 0.67 0 0.34 0 0 Z " fill="#4C654C" transform="translate(8,103)"/>
<path d="M0 0 C1.65 0 3.3 0 5 0 C5 0.33 5 0.66 5 1 C3.35 1 1.7 1 0 1 C0 0.67 0 0.34 0 0 Z " fill="#D86525" transform="translate(63,102)"/>
<path d="M0 0 C1.65 0 3.3 0 5 0 C5 0.33 5 0.66 5 1 C3.35 1 1.7 1 0 1 C0 0.67 0 0.34 0 0 Z " fill="#FFCB65" transform="translate(135,100)"/>
<path d="M0 0 C0.33 0 0.66 0 1 0 C1 1.65 1 3.3 1 5 C0.67 5 0.34 5 0 5 C0 3.35 0 1.7 0 0 Z " fill="#FFFF4C" transform="translate(11,92)"/>
<path d="M0 0 C0 0.99 0 1.98 0 3 C-0.66 2.34 -1.32 1.68 -2 1 C-1.34 0.67 -0.68 0.34 0 0 Z " fill="#4C654C" transform="translate(115,84)"/>
<path d="M0 0 C0.33 0 0.66 0 1 0 C1 1.65 1 3.3 1 5 C0.67 5 0.34 5 0 5 C0 3.35 0 1.7 0 0 Z " fill="#435D43" transform="translate(28,80)"/>
<path d="M0 0 C0.33 0 0.66 0 1 0 C1 1.65 1 3.3 1 5 C0.67 5 0.34 5 0 5 C0 3.35 0 1.7 0 0 Z " fill="#435D43" transform="translate(125,79)"/>
<path d="M0 0 C0.33 0 0.66 0 1 0 C1 1.65 1 3.3 1 5 C0.67 5 0.34 5 0 5 C0 3.35 0 1.7 0 0 Z " fill="#CB7F32" transform="translate(82,78)"/>
<path d="M0 0 C0.33 0 0.66 0 1 0 C1 1.65 1 3.3 1 5 C0.67 5 0.34 5 0 5 C0 3.35 0 1.7 0 0 Z " fill="#FFD054" transform="translate(34,61)"/>
<path d="M0 0 C0.99 0 1.98 0 3 0 C3 0.66 3 1.32 3 2 C2.01 1.67 1.02 1.34 0 1 C0 0.67 0 0.34 0 0 Z " fill="#D44319" transform="translate(79,59)"/>
<path d="M0 0 C1.65 0 3.3 0 5 0 C5 0.33 5 0.66 5 1 C3.35 1 1.7 1 0 1 C0 0.67 0 0.34 0 0 Z " fill="#FFD45D" transform="translate(122,58)"/>
<path d="M0 0 C1.65 0 3.3 0 5 0 C5 0.33 5 0.66 5 1 C3.35 1 1.7 1 0 1 C0 0.67 0 0.34 0 0 Z " fill="#FFDD54" transform="translate(110,48)"/>
<path d="M0 0 C1.65 0 3.3 0 5 0 C5 0.33 5 0.66 5 1 C3.35 1 1.7 1 0 1 C0 0.67 0 0.34 0 0 Z " fill="#FFD054" transform="translate(39,48)"/>
<path d="M0 0 C0.33 0 0.66 0 1 0 C1 1.65 1 3.3 1 5 C0.67 5 0.34 5 0 5 C0 3.35 0 1.7 0 0 Z " fill="#CB7F32" transform="translate(75,44)"/>
<path d="M0 0 C0.33 0.99 0.66 1.98 1 3 C0.34 3 -0.32 3 -1 3 C-0.67 2.01 -0.34 1.02 0 0 Z " fill="#DD5B21" transform="translate(77,41)"/>
<path d="M0 0 C0.66 0.33 1.32 0.66 2 1 C1.01 1.66 0.02 2.32 -1 3 C-0.67 2.01 -0.34 1.02 0 0 Z " fill="#EE2A00" transform="translate(71,15)"/>
<path d="M0 0 C1 4 1 4 1 4 Z " fill="#DFDF3F" transform="translate(17,192)"/>
<path d="M0 0 C4 1 4 1 4 1 Z " fill="#D94425" transform="translate(106,162)"/>
<path d="M0 0 C4 1 4 1 4 1 Z " fill="#C44A00" transform="translate(44,162)"/>
<path d="M0 0 C4 1 4 1 4 1 Z " fill="#D95444" transform="translate(84,161)"/>
<path d="M0 0 C4 1 4 1 4 1 Z " fill="#000000" transform="translate(120,160)"/>
<path d="M0 0 C4 1 4 1 4 1 Z " fill="#D93525" transform="translate(80,160)"/>
<path d="M0 0 C4 1 4 1 4 1 Z " fill="#000000" transform="translate(30,160)"/>
<path d="M0 0 C4 1 4 1 4 1 Z " fill="#684E22" transform="translate(115,159)"/>
<path d="M0 0 C4 1 4 1 4 1 Z " fill="#4B4E31" transform="translate(35,159)"/>
<path d="M0 0 C4 1 4 1 4 1 Z " fill="#445444" transform="translate(133,158)"/>
<path d="M0 0 C4 1 4 1 4 1 Z " fill="#3F5F3F" transform="translate(17,158)"/>
<path d="M0 0 C4 1 4 1 4 1 Z " fill="#DF5F1F" transform="translate(104,153)"/>
<path d="M0 0 C4 1 4 1 4 1 Z " fill="#DF5F1F" transform="translate(46,153)"/>
<path d="M0 0 C0.66 0.33 1.32 0.66 2 1 C1.01 1 0.02 1 -1 1 C-0.67 0.67 -0.34 0.34 0 0 Z " fill="#2F3F2F" transform="translate(148,151)"/>
<path d="M0 0 C4 1 4 1 4 1 Z " fill="#D95425" transform="translate(65,152)"/>
<path d="M0 0 C4 1 4 1 4 1 Z " fill="#D95425" transform="translate(76,149)"/>
<path d="M0 0 C4 1 4 1 4 1 Z " fill="#3A4A3A" transform="translate(131,148)"/>
<path d="M0 0 C4 1 4 1 4 1 Z " fill="#C44A3A" transform="translate(80,148)"/>
<path d="M0 0 C4 1 4 1 4 1 Z " fill="#3F5F3F" transform="translate(19,148)"/>
<path d="M0 0 C4 1 4 1 4 1 Z " fill="#EF5F00" transform="translate(85,145)"/>
<path d="M0 0 C4 1 4 1 4 1 Z " fill="#DF5F1F" transform="translate(89,144)"/>
<path d="M0 0 C4 1 4 1 4 1 Z " fill="#DF5F1F" transform="translate(62,144)"/>
<path d="M0 0 C1 4 1 4 1 4 Z " fill="#345434" transform="translate(155,140)"/>
<path d="M0 0 C4 1 4 1 4 1 Z " fill="#C95434" transform="translate(57,143)"/>
<path d="M0 0 C1 4 1 4 1 4 Z " fill="#EF5F0F" transform="translate(71,139)"/>
<path d="M0 0 C1 4 1 4 1 4 Z " fill="#D93525" transform="translate(82,138)"/>
<path d="M0 0 C0 3 0 3 0 3 Z " fill="#5C653C" transform="translate(138,134)"/>
<path d="M0 0 C0.33 0.66 0.66 1.32 1 2 C0.01 1.67 -0.98 1.34 -2 1 C-1.34 0.67 -0.68 0.34 0 0 Z " fill="#D07018" transform="translate(86,135)"/>
<path d="M0 0 C4 1 4 1 4 1 Z " fill="#D2781C" transform="translate(117,132)"/>
<path d="M0 0 C4 1 4 1 4 1 Z " fill="#BF7F3F" transform="translate(33,132)"/>
<path d="M0 0 C0.99 0.495 0.99 0.495 2 1 C1.67 1.66 1.34 2.32 1 3 C0.67 2.01 0.34 1.02 0 0 Z " fill="#4F5F4F" transform="translate(24,130)"/>
<path d="M0 0 C0.99 0.33 1.98 0.66 3 1 C2.01 1 1.02 1 0 1 C0 0.67 0 0.34 0 0 Z " fill="#F2390C" transform="translate(112,128)"/>
<path d="M0 0 C4 1 4 1 4 1 Z " fill="#445444" transform="translate(114,113)"/>
<path d="M0 0 C4 1 4 1 4 1 Z " fill="#3F5F3F" transform="translate(36,113)"/>
<path d="M0 0 C4 1 4 1 4 1 Z " fill="#FF3F00" transform="translate(75,108)"/>
<path d="M0 0 C1 4 1 4 1 4 Z " fill="#DF5F1F" transform="translate(93,106)"/>
<path d="M0 0 C4 1 4 1 4 1 Z " fill="#3A4A3A" transform="translate(113,103)"/>
<path d="M0 0 C4 1 4 1 4 1 Z " fill="#445444" transform="translate(37,103)"/>
<path d="M0 0 C4 1 4 1 4 1 Z " fill="#DF7F1F" transform="translate(88,93)"/>
<path d="M0 0 C4 1 4 1 4 1 Z " fill="#C44A0F" transform="translate(62,93)"/>
<path d="M0 0 C1 4 1 4 1 4 Z " fill="#5A6A5A" transform="translate(95,85)"/>
<path d="M0 0 C1 4 1 4 1 4 Z " fill="#E93515" transform="translate(71,78)"/>
<path d="M0 0 C4 1 4 1 4 1 Z " fill="#C97434" transform="translate(75,74)"/>
<path d="M0 0 C4 1 4 1 4 1 Z " fill="#FFDF5F" transform="translate(131,71)"/>
<path d="M0 0 C4 1 4 1 4 1 Z " fill="#FFAF5F" transform="translate(125,71)"/>
<path d="M0 0 C4 1 4 1 4 1 Z " fill="#FFAA55" transform="translate(25,71)"/>
<path d="M0 0 C4 1 4 1 4 1 Z " fill="#FFCF5F" transform="translate(19,71)"/>
<path d="M0 0 C1 4 1 4 1 4 Z " fill="#CF4A2F" transform="translate(87,67)"/>
<path d="M0 0 C1 4 1 4 1 4 Z " fill="#DD4E22" transform="translate(66,67)"/>
<path d="M0 0 C1 4 1 4 1 4 Z " fill="#FFC974" transform="translate(119,61)"/>
<path d="M0 0 C0 3 0 3 0 3 Z " fill="#FFEF2F" transform="translate(25,60)"/>
<path d="M0 0 C4 1 4 1 4 1 Z " fill="#FFC974" transform="translate(114,60)"/>
<path d="M0 0 C0.66 0.33 1.32 0.66 2 1 C1.01 1 0.02 1 -1 1 C-0.67 0.67 -0.34 0.34 0 0 Z " fill="#C44A0F" transform="translate(73,59)"/>
<path d="M0 0 C4 1 4 1 4 1 Z " fill="#FFB45A" transform="translate(36,60)"/>
<path d="M0 0 C4 1 4 1 4 1 Z " fill="#FFB46A" transform="translate(28,58)"/>
<path d="M0 0 C1 4 1 4 1 4 Z " fill="#FFC954" transform="translate(107,51)"/>
<path d="M0 0 C1 4 1 4 1 4 Z " fill="#FFC974" transform="translate(46,51)"/>
<path d="M0 0 C4 1 4 1 4 1 Z " fill="#FFD935" transform="translate(50,53)"/>
<path d="M0 0 C4 1 4 1 4 1 Z " fill="#FFD935" transform="translate(97,52)"/>
<path d="M0 0 C1 4 1 4 1 4 Z " fill="#FFBF5F" transform="translate(93,45)"/>
<path d="M0 0 C1 4 1 4 1 4 Z " fill="#E94A15" transform="translate(84,3)"/>
<path d="" fill="#E9CD71" transform="translate(0,0)"/>
<path d="M0 0 C3 1 3 1 3 1 Z " fill="#CD4631" transform="translate(110,161)"/>
<path d="M0 0 C3 1 3 1 3 1 Z " fill="#D47F2A" transform="translate(67,161)"/>
<path d="M0 0 C3 1 3 1 3 1 Z " fill="#CD3100" transform="translate(71,160)"/>
<path d="M0 0 C3 1 3 1 3 1 Z " fill="#314631" transform="translate(137,157)"/>
<path d="M0 0 C3 1 3 1 3 1 Z " fill="#3F543F" transform="translate(14,157)"/>
<path d="M0 0 C3 1 3 1 3 1 Z " fill="#3F543F" transform="translate(11,156)"/>
<path d="M0 0 C3 1 3 1 3 1 Z " fill="#C6381C" transform="translate(43,152)"/>
<path d="M0 0 C3 1 3 1 3 1 Z " fill="#CD4615" transform="translate(69,151)"/>
<path d="M0 0 C3 1 3 1 3 1 Z " fill="#CD7131" transform="translate(73,150)"/>
<path d="M0 0 C3 1 3 1 3 1 Z " fill="#314631" transform="translate(135,147)"/>
<path d="M0 0 C3 1 3 1 3 1 Z " fill="#314631" transform="translate(16,147)"/>
<path d="M0 0 C3 1 3 1 3 1 Z " fill="#CD7131" transform="translate(66,145)"/>
<path d="M0 0 C3 1 3 1 3 1 Z " fill="#DB7123" transform="translate(67,136)"/>
<path d="M0 0 C0.66 0.66 1.32 1.32 2 2 C1.34 2 0.68 2 0 2 C0 1.34 0 0.68 0 0 Z " fill="#9B460E" transform="translate(125,133)"/>
<path d="M0 0 C3 1 3 1 3 1 Z " fill="#E92A15" transform="translate(121,131)"/>
<path d="" fill="#E95415" transform="translate(0,0)"/>
<path d="" fill="#3F543F" transform="translate(0,0)"/>
<path d="" fill="#3F543F" transform="translate(0,0)"/>
<path d="" fill="#3F543F" transform="translate(0,0)"/>
<path d="" fill="#314631" transform="translate(0,0)"/>
<path d="M0 0 C3 1 3 1 3 1 Z " fill="#314631" transform="translate(111,114)"/>
<path d="M0 0 C3 1 3 1 3 1 Z " fill="#314631" transform="translate(40,114)"/>
<path d="M0 0 C3 1 3 1 3 1 Z " fill="#000000" transform="translate(127,111)"/>
<path d="M0 0 C3 1 3 1 3 1 Z " fill="#000000" transform="translate(24,111)"/>
<path d="M0 0 C3 1 3 1 3 1 Z " fill="#BF7F15" transform="translate(88,110)"/>
<path d="M0 0 C3 1 3 1 3 1 Z " fill="#CD7131" transform="translate(63,110)"/>
<path d="M0 0 C3 1 3 1 3 1 Z " fill="#E95415" transform="translate(79,107)"/>
<path d="M0 0 C3 1 3 1 3 1 Z " fill="#E95415" transform="translate(72,107)"/>
<path d="M0 0 C3 1 3 1 3 1 Z " fill="#3F543F" transform="translate(44,105)"/>
<path d="M0 0 C3 1 3 1 3 1 Z " fill="#314631" transform="translate(110,104)"/>
<path d="M0 0 C3 1 3 1 3 1 Z " fill="#697F69" transform="translate(41,104)"/>
<path d="" fill="#CD4615" transform="translate(0,0)"/>
<path d="M0 0 C0.66 0.66 1.32 1.32 2 2 C1.34 2 0.68 2 0 2 C0 1.34 0 0.68 0 0 Z " fill="#2A2A2A" transform="translate(117,101)"/>
<path d="M0 0 C0.33 0.66 0.66 1.32 1 2 C0.34 1.67 -0.32 1.34 -1 1 C-0.67 0.67 -0.34 0.34 0 0 Z " fill="#D84C26" transform="translate(87,91)"/>
<path d="M0 0 C0.66 0.66 1.32 1.32 2 2 C1.34 2 0.68 2 0 2 C0 1.34 0 0.68 0 0 Z " fill="#DD4E21" transform="translate(66,91)"/>
<path d="M0 0 C0.66 0.66 1.32 1.32 2 2 C1.34 2 0.68 2 0 2 C0 1.34 0 0.68 0 0 Z " fill="#E97F15" transform="translate(74,87)"/>
<path d="M0 0 C3 1 3 1 3 1 Z " fill="#3F543F" transform="translate(41,86)"/>
<path d="" fill="#CD3115" transform="translate(0,0)"/>
<path d="" fill="#D4542A" transform="translate(0,0)"/>
<path d="" fill="#D4542A" transform="translate(0,0)"/>
<path d="" fill="#E95415" transform="translate(0,0)"/>
<path d="" fill="#FFE271" transform="translate(0,0)"/>
<path d="" fill="#FFE271" transform="translate(0,0)"/>
<path d="" fill="#FFCD46" transform="translate(0,0)"/>
<path d="" fill="#5B7131" transform="translate(0,0)"/>
<path d="" fill="#FFCD46" transform="translate(0,0)"/>
<path d="" fill="#314631" transform="translate(0,0)"/>
<path d="" fill="#FFCD46" transform="translate(0,0)"/>
<path d="M0 0 C3 1 3 1 3 1 Z " fill="#3F543F" transform="translate(43,76)"/>
<path d="" fill="#FFCD71" transform="translate(0,0)"/>
<path d="" fill="#E92A15" transform="translate(0,0)"/>
<path d="M0 0 C3 1 3 1 3 1 Z " fill="#314631" transform="translate(38,74)"/>
<path d="" fill="#FFFF2A" transform="translate(0,0)"/>
<path d="" fill="#FFFF7F" transform="translate(0,0)"/>
<path d="M0 0 C3 1 3 1 3 1 Z " fill="#FFCD71" transform="translate(101,53)"/>
<path d="M0 0 C3 1 3 1 3 1 Z " fill="#FFCD31" transform="translate(54,52)"/>
<path d="" fill="#FFCD71" transform="translate(0,0)"/>
<path d="" fill="#FFE246" transform="translate(0,0)"/>
<path d="M0 0 C3 1 3 1 3 1 Z " fill="#FFE97F" transform="translate(99,42)"/>
<path d="M0 0 C3 1 3 1 3 1 Z " fill="#FFCD71" transform="translate(52,42)"/>
<path d="" fill="#CD4631" transform="translate(0,0)"/>
<path d="" fill="#FF0000" transform="translate(0,0)"/>
<path d="" fill="#FF2A00" transform="translate(0,0)"/>
<path d="" fill="#FFD42A" transform="translate(0,0)"/>
<path d="" fill="#FFFF3F" transform="translate(0,0)"/>
<path d="" fill="#FFFF3F" transform="translate(0,0)"/>
<path d="M0 0 C2 1 2 1 2 1 Z " fill="#FFD42A" transform="translate(134,189)"/>
<path d="M0 0 C2 1 2 1 2 1 Z " fill="#FFD42A" transform="translate(20,189)"/>
<path d="" fill="#FFFF7F" transform="translate(0,0)"/>
<path d="" fill="#FFFF00" transform="translate(0,0)"/>
<path d="" fill="#FFFF00" transform="translate(0,0)"/>
<path d="" fill="#FFD46A" transform="translate(0,0)"/>
<path d="" fill="#FFFF7F" transform="translate(0,0)"/>
<path d="M0 0 C2 1 2 1 2 1 Z " fill="#B44A4A" transform="translate(42,161)"/>
<path d="M0 0 C2 1 2 1 2 1 Z " fill="#DF3F1F" transform="translate(113,160)"/>
<path d="M0 0 C2 1 2 1 2 1 Z " fill="#DF3F1F" transform="translate(39,160)"/>
<path d="M0 0 C2 1 2 1 2 1 Z " fill="#4A6A4A" transform="translate(140,156)"/>
<path d="M0 0 C2 1 2 1 2 1 Z " fill="#555555" transform="translate(142,155)"/>
<path d="M0 0 C2 1 2 1 2 1 Z " fill="#5F7F5F" transform="translate(144,154)"/>
<path d="M0 0 C2 1 2 1 2 1 Z " fill="#1F3F1F" transform="translate(6,153)"/>
<path d="M0 0 C2 1 2 1 2 1 Z " fill="#B46A4A" transform="translate(109,152)"/>
<path d="M0 0 C2 1 2 1 2 1 Z " fill="#E57219" transform="translate(111,151)"/>
<path d="M0 0 C2 1 2 1 2 1 Z " fill="#AA5500" transform="translate(41,151)"/>
<path d="" fill="#3F3F3F" transform="translate(0,0)"/>
<path d="M0 0 C2 1 2 1 2 1 Z " fill="#597259" transform="translate(138,146)"/>
<path d="M0 0 C2 1 2 1 2 1 Z " fill="#333319" transform="translate(125,146)"/>
<path d="M0 0 C2 1 2 1 2 1 Z " fill="#1F3F1F" transform="translate(14,146)"/>
<path d="M0 0 C2 1 2 1 2 1 Z " fill="#597259" transform="translate(140,145)"/>
<path d="M0 0 C2 1 2 1 2 1 Z " fill="#2A2A2A" transform="translate(26,145)"/>
<path d="" fill="#445D44" transform="translate(0,0)"/>
<path d="M0 0 C2 1 2 1 2 1 Z " fill="#2A2A2A" transform="translate(129,143)"/>
<path d="M0 0 C2 1 2 1 2 1 Z " fill="#E96A15" transform="translate(113,143)"/>
<path d="" fill="#AA5500" transform="translate(0,0)"/>
<path d="M0 0 C2 1 2 1 2 1 Z " fill="#BF5515" transform="translate(39,143)"/>
<path d="M0 0 C2 1 2 1 2 1 Z " fill="#3F3F00" transform="translate(22,142)"/>
<path d="M0 0 C2 1 2 1 2 1 Z " fill="#1F3F1F" transform="translate(141,141)"/>
<path d="M0 0 C2 1 2 1 2 1 Z " fill="#5F7F5F" transform="translate(11,141)"/>
<path d="M0 0 C2 1 2 1 2 1 Z " fill="#3F3F3F" transform="translate(149,135)"/>
<path d="M0 0 C2 1 2 1 2 1 Z " fill="#9F7F3F" transform="translate(27,134)"/>
<path d="M0 0 C2 1 2 1 2 1 Z " fill="#7F7F7F" transform="translate(4,134)"/>
<path d="M0 0 C2 1 2 1 2 1 Z " fill="#2A2A2A" transform="translate(146,133)"/>
<path d="M0 0 C2 1 2 1 2 1 Z " fill="#1F3F1F" transform="translate(7,132)"/>
<path d="M0 0 C2 1 2 1 2 1 Z " fill="#DF5F00" transform="translate(31,131)"/>
<path d="" fill="#6A6A6A" transform="translate(0,0)"/>
<path d="" fill="#6A6A6A" transform="translate(0,0)"/>
<path d="M0 0 C2 1 2 1 2 1 Z " fill="#DF3F1F" transform="translate(39,129)"/>
<path d="" fill="#1F3F1F" transform="translate(0,0)"/>
<path d="" fill="#193319" transform="translate(0,0)"/>
<path d="" fill="#D42A00" transform="translate(0,0)"/>
<path d="" fill="#6A6A6A" transform="translate(0,0)"/>
<path d="" fill="#555555" transform="translate(0,0)"/>
<path d="" fill="#1F3F1F" transform="translate(0,0)"/>
<path d="" fill="#DF3F1F" transform="translate(0,0)"/>
<path d="" fill="#1F3F1F" transform="translate(0,0)"/>
<path d="" fill="#1F3F1F" transform="translate(0,0)"/>
<path d="" fill="#5F7F5F" transform="translate(0,0)"/>
<path d="" fill="#DF7F1F" transform="translate(0,0)"/>
<path d="" fill="#AA5555" transform="translate(0,0)"/>
<path d="" fill="#6A6A6A" transform="translate(0,0)"/>
<path d="" fill="#1F3F1F" transform="translate(0,0)"/>
<path d="" fill="#193319" transform="translate(0,0)"/>
<path d="" fill="#E53319" transform="translate(0,0)"/>
<path d="" fill="#DF3F1F" transform="translate(0,0)"/>
<path d="" fill="#B46A4A" transform="translate(0,0)"/>
<path d="" fill="#5F7F5F" transform="translate(0,0)"/>
<path d="" fill="#5F7F5F" transform="translate(0,0)"/>
<path d="" fill="#1F3F1F" transform="translate(0,0)"/>
<path d="" fill="#A57219" transform="translate(0,0)"/>
<path d="" fill="#5F7F5F" transform="translate(0,0)"/>
<path d="" fill="#4A6A4A" transform="translate(0,0)"/>
<path d="" fill="#1F3F1F" transform="translate(0,0)"/>
<path d="" fill="#4A6A4A" transform="translate(0,0)"/>
<path d="" fill="#4A6A4A" transform="translate(0,0)"/>
<path d="M0 0 C2 1 2 1 2 1 Z " fill="#5F7F5F" transform="translate(105,117)"/>
<path d="M0 0 C2 1 2 1 2 1 Z " fill="#333319" transform="translate(47,117)"/>
<path d="" fill="#4A6A4A" transform="translate(0,0)"/>
<path d="M0 0 C2 1 2 1 2 1 Z " fill="#193319" transform="translate(107,116)"/>
<path d="M0 0 C2 1 2 1 2 1 Z " fill="#333319" transform="translate(45,116)"/>
<path d="M0 0 C2 1 2 1 2 1 Z " fill="#727259" transform="translate(109,115)"/>
<path d="M0 0 C2 1 2 1 2 1 Z " fill="#1F3F1F" transform="translate(43,115)"/>
<path d="" fill="#5F7F5F" transform="translate(0,0)"/>
<path d="" fill="#FF7F00" transform="translate(0,0)"/>
<path d="M0 0 C2 1 2 1 2 1 Z " fill="#1F3F1F" transform="translate(105,106)"/>
<path d="M0 0 C2 1 2 1 2 1 Z " fill="#1F3F1F" transform="translate(47,106)"/>
<path d="M0 0 C2 1 2 1 2 1 Z " fill="#555555" transform="translate(108,105)"/>
<path d="" fill="#E92A15" transform="translate(0,0)"/>
<path d="M0 0 C2 1 2 1 2 1 Z " fill="#FF0000" transform="translate(83,105)"/>
<path d="" fill="#BB5D19" transform="translate(0,0)"/>
<path d="M0 0 C2 1 2 1 2 1 Z " fill="#4A6A4A" transform="translate(146,104)"/>
<path d="M0 0 C2 1 2 1 2 1 Z " fill="#5F7F5F" transform="translate(6,104)"/>
<path d="" fill="#DF7F1F" transform="translate(0,0)"/>
<path d="" fill="#DF3F1F" transform="translate(0,0)"/>
<path d="" fill="#D46A2A" transform="translate(0,0)"/>
<path d="M0 0 C2 1 2 1 2 1 Z " fill="#FFD42A" transform="translate(17,100)"/>
<path d="M0 0 C2 1 2 1 2 1 Z " fill="#FFDF3F" transform="translate(14,100)"/>
<path d="" fill="#FFFF3F" transform="translate(0,0)"/>
<path d="" fill="#FFBF3F" transform="translate(0,0)"/>
<path d="" fill="#FF946A" transform="translate(0,0)"/>
<path d="M0 0 C2 1 2 1 2 1 Z " fill="#FF7F00" transform="translate(94,95)"/>
<path d="M0 0 C2 1 2 1 2 1 Z " fill="#D42A00" transform="translate(58,95)"/>
<path d="M0 0 C2 1 2 1 2 1 Z " fill="#AA5555" transform="translate(92,94)"/>
<path d="M0 0 C2 1 2 1 2 1 Z " fill="#AA5555" transform="translate(60,94)"/>
<path d="M0 0 C2 1 2 1 2 1 Z " fill="#3F3F00" transform="translate(99,92)"/>
<path d="M0 0 C2 1 2 1 2 1 Z " fill="#3F3F3F" transform="translate(53,92)"/>
<path d="M0 0 C2 1 2 1 2 1 Z " fill="#2A2A2A" transform="translate(101,91)"/>
<path d="M0 0 C2 1 2 1 2 1 Z " fill="#2A2A2A" transform="translate(55,91)"/>
<path d="M0 0 C2 1 2 1 2 1 Z " fill="#7F7F7F" transform="translate(51,91)"/>
<path d="" fill="#FFD46A" transform="translate(0,0)"/>
<path d="" fill="#FFD46A" transform="translate(0,0)"/>
<path d="M0 0 C2 1 2 1 2 1 Z " fill="#1F3F1F" transform="translate(103,90)"/>
<path d="" fill="#D46A00" transform="translate(0,0)"/>
<path d="M0 0 C2 1 2 1 2 1 Z " fill="#193319" transform="translate(49,90)"/>
<path d="" fill="#FF9F7F" transform="translate(0,0)"/>
<path d="M0 0 C2 1 2 1 2 1 Z " fill="#AA5500" transform="translate(76,89)"/>
<path d="" fill="#1F3F1F" transform="translate(0,0)"/>
<path d="M0 0 C2 1 2 1 2 1 Z " fill="#1F3F1F" transform="translate(106,88)"/>
<path d="" fill="#DF3F1F" transform="translate(0,0)"/>
<path d="M0 0 C2 1 2 1 2 1 Z " fill="#E92A15" transform="translate(78,88)"/>
<path d="" fill="#B46A4A" transform="translate(0,0)"/>
<path d="M0 0 C2 1 2 1 2 1 Z " fill="#6A6A6A" transform="translate(46,88)"/>
<path d="M0 0 C2 1 2 1 2 1 Z " fill="#5F7F5F" transform="translate(108,87)"/>
<path d="" fill="#B46A1F" transform="translate(0,0)"/>
<path d="M0 0 C2 1 2 1 2 1 Z " fill="#555555" transform="translate(44,87)"/>
<path d="M0 0 C2 1 2 1 2 1 Z " fill="#1F3F1F" transform="translate(111,86)"/>
<path d="" fill="#1F3F1F" transform="translate(0,0)"/>
<path d="M0 0 C2 1 2 1 2 1 Z " fill="#FFFF3F" transform="translate(131,84)"/>
<path d="" fill="#FFFF3F" transform="translate(0,0)"/>
<path d="" fill="#FF9F7F" transform="translate(0,0)"/>
<path d="" fill="#FFB46A" transform="translate(0,0)"/>
<path d="M0 0 C2 1 2 1 2 1 Z " fill="#5F7F5F" transform="translate(99,81)"/>
<path d="M0 0 C2 1 2 1 2 1 Z " fill="#6A6A6A" transform="translate(53,81)"/>
<path d="M0 0 C2 1 2 1 2 1 Z " fill="#2A2A2A" transform="translate(101,80)"/>
<path d="" fill="#FFDF3F" transform="translate(0,0)"/>
<path d="M0 0 C2 1 2 1 2 1 Z " fill="#1F3F1F" transform="translate(50,79)"/>
<path d="M0 0 C2 1 2 1 2 1 Z " fill="#1F3F1F" transform="translate(104,78)"/>
<path d="M0 0 C2 1 2 1 2 1 Z " fill="#1F3F1F" transform="translate(48,78)"/>
<path d="M0 0 C2 1 2 1 2 1 Z " fill="#1F3F1F" transform="translate(106,77)"/>
<path d="" fill="#E96A15" transform="translate(0,0)"/>
<path d="M0 0 C2 1 2 1 2 1 Z " fill="#1F3F1F" transform="translate(46,77)"/>
<path d="" fill="#FFBF3F" transform="translate(0,0)"/>
<path d="M0 0 C2 1 2 1 2 1 Z " fill="#555555" transform="translate(109,76)"/>
<path d="" fill="#000000" transform="translate(0,0)"/>
<path d="" fill="#FFDF3F" transform="translate(0,0)"/>
<path d="M0 0 C2 1 2 1 2 1 Z " fill="#5F7F5F" transform="translate(111,75)"/>
<path d="" fill="#B46A1F" transform="translate(0,0)"/>
<path d="M0 0 C2 1 2 1 2 1 Z " fill="#DA3612" transform="translate(79,75)"/>
<path d="M0 0 C2 1 2 1 2 1 Z " fill="#EC7612" transform="translate(73,75)"/>
<path d="M0 0 C2 1 2 1 2 1 Z " fill="#5F7F5F" transform="translate(41,75)"/>
<path d="" fill="#FFDF3F" transform="translate(0,0)"/>
<path d="M0 0 C2 1 2 1 2 1 Z " fill="#4A6A4A" transform="translate(114,74)"/>
<path d="" fill="#FFFF3F" transform="translate(0,0)"/>
<path d="" fill="#D42A00" transform="translate(0,0)"/>
<path d="" fill="#FF3F00" transform="translate(0,0)"/>
<path d="" fill="#FFFF00" transform="translate(0,0)"/>
<path d="" fill="#DF7F1F" transform="translate(0,0)"/>
<path d="" fill="#DF3F1F" transform="translate(0,0)"/>
<path d="" fill="#FFD46A" transform="translate(0,0)"/>
<path d="" fill="#FFBF7F" transform="translate(0,0)"/>
<path d="M0 0 C2 1 2 1 2 1 Z " fill="#FFD42A" transform="translate(40,59)"/>
<path d="M0 0 C2 1 2 1 2 1 Z " fill="#FFD46A" transform="translate(111,58)"/>
<path d="M0 0 C2 1 2 1 2 1 Z " fill="#FF3F00" transform="translate(71,58)"/>
<path d="" fill="#D46A2A" transform="translate(0,0)"/>
<path d="" fill="#FFD46A" transform="translate(0,0)"/>
<path d="" fill="#DF3F1F" transform="translate(0,0)"/>
<path d="" fill="#AA5555" transform="translate(0,0)"/>
<path d="M0 0 C2 1 2 1 2 1 Z " fill="#FFD42A" transform="translate(57,51)"/>
<path d="M0 0 C2 1 2 1 2 1 Z " fill="#FFD46A" transform="translate(36,50)"/>
<path d="M0 0 C2 1 2 1 2 1 Z " fill="#FFDF3F" transform="translate(115,49)"/>
<path d="" fill="#FFD42A" transform="translate(0,0)"/>
<path d="" fill="#FFFF00" transform="translate(0,0)"/>
<path d="" fill="#FFFF00" transform="translate(0,0)"/>
<path d="" fill="#FFD42A" transform="translate(0,0)"/>
<path d="M0 0 C2 1 2 1 2 1 Z " fill="#FFDF3F" transform="translate(103,43)"/>
<path d="M0 0 C2 1 2 1 2 1 Z " fill="#FFDF7F" transform="translate(50,43)"/>
<path d="M0 0 C2 1 2 1 2 1 Z " fill="#FFD42A" transform="translate(57,42)"/>
<path d="M0 0 C2 1 2 1 2 1 Z " fill="#FFFF00" transform="translate(97,41)"/>
<path d="" fill="#9F7F1F" transform="translate(0,0)"/>
<path d="M0 0 C2 1 2 1 2 1 Z " fill="#FFFF00" transform="translate(55,41)"/>
<path d="" fill="#AA5555" transform="translate(0,0)"/>
<path d="" fill="#FF7F00" transform="translate(0,0)"/>
<path d="" fill="#DF3F1F" transform="translate(0,0)"/>
<path d="M0 0 C2 1 2 1 2 1 Z " fill="#D46A2A" transform="translate(80,32)"/>
<path d="M0 0 C2 1 2 1 2 1 Z " fill="#DF3F1F" transform="translate(72,32)"/>
<path d="M0 0 C2 1 2 1 2 1 Z " fill="#DF3F1F" transform="translate(80,30)"/>
<path d="M0 0 C2 1 2 1 2 1 Z " fill="#FF3F00" transform="translate(71,29)"/>
<path d="" fill="#FF0000" transform="translate(0,0)"/>
<path d="" fill="#FF3F00" transform="translate(0,0)"/>
<path d="" fill="#AA5555" transform="translate(0,0)"/>
<path d="" fill="#B46A4A" transform="translate(0,0)"/>
<path d="" fill="#D42A00" transform="translate(0,0)"/>
<path d="M0 0 C2 1 2 1 2 1 Z " fill="#FF0000" transform="translate(81,15)"/>
<path d="M0 0 C2 1 2 1 2 1 Z " fill="#FF7F00" transform="translate(73,11)"/>
<path d="" fill="#FF7F00" transform="translate(0,0)"/>
<path d="" fill="#DF3F1F" transform="translate(0,0)"/>
<path d="" fill="#D42A2A" transform="translate(0,0)"/>
<path d="" fill="#FFAA55" transform="translate(0,0)"/>
<path d="" fill="#FFAA55" transform="translate(0,0)"/>
<path d="" fill="#FFFF00" transform="translate(0,0)"/>
<path d="" fill="#FFFF7F" transform="translate(0,0)"/>
<path d="" fill="#FFFF7F" transform="translate(0,0)"/>
<path d="" fill="#FFAA55" transform="translate(0,0)"/>
<path d="" fill="#FFFF7F" transform="translate(0,0)"/>
<path d="" fill="#FFFF7F" transform="translate(0,0)"/>
<path d="" fill="#FFAA55" transform="translate(0,0)"/>
<path d="" fill="#FFAA55" transform="translate(0,0)"/>
<path d="" fill="#FFFF00" transform="translate(0,0)"/>
<path d="" fill="#FFFF7F" transform="translate(0,0)"/>
<path d="" fill="#FFFF00" transform="translate(0,0)"/>
<path d="" fill="#FFAA55" transform="translate(0,0)"/>
<path d="" fill="#FFFF7F" transform="translate(0,0)"/>
<path d="" fill="#FFFF7F" transform="translate(0,0)"/>
<path d="" fill="#FFFF00" transform="translate(0,0)"/>
<path d="" fill="#FFAA55" transform="translate(0,0)"/>
<path d="" fill="#FFAA55" transform="translate(0,0)"/>
<path d="" fill="#FFFF7F" transform="translate(0,0)"/>
<path d="" fill="#FFFF7F" transform="translate(0,0)"/>
<path d="" fill="#FFFF7F" transform="translate(0,0)"/>
<path d="" fill="#FFAA55" transform="translate(0,0)"/>
<path d="" fill="#3F7F3F" transform="translate(0,0)"/>
<path d="" fill="#555555" transform="translate(0,0)"/>
<path d="" fill="#3F7F3F" transform="translate(0,0)"/>
<path d="" fill="#555555" transform="translate(0,0)"/>
<path d="" fill="#3F7F3F" transform="translate(0,0)"/>
<path d="" fill="#7F7F7F" transform="translate(0,0)"/>
<path d="" fill="#CC6633" transform="translate(0,0)"/>
<path d="" fill="#D4552A" transform="translate(0,0)"/>
<path d="" fill="#336633" transform="translate(0,0)"/>
<path d="" fill="#7F7F7F" transform="translate(0,0)"/>
<path d="" fill="#AA5500" transform="translate(0,0)"/>
<path d="" fill="#CC6633" transform="translate(0,0)"/>
<path d="" fill="#336633" transform="translate(0,0)"/>
<path d="" fill="#3F7F3F" transform="translate(0,0)"/>
<path d="" fill="#555555" transform="translate(0,0)"/>
<path d="" fill="#3F7F3F" transform="translate(0,0)"/>
<path d="" fill="#666633" transform="translate(0,0)"/>
<path d="" fill="#555555" transform="translate(0,0)"/>
<path d="" fill="#3F7F3F" transform="translate(0,0)"/>
<path d="" fill="#666633" transform="translate(0,0)"/>
<path d="" fill="#336633" transform="translate(0,0)"/>
<path d="" fill="#666633" transform="translate(0,0)"/>
<path d="" fill="#FF0000" transform="translate(0,0)"/>
<path d="" fill="#FF0000" transform="translate(0,0)"/>
<path d="" fill="#336633" transform="translate(0,0)"/>
<path d="" fill="#FF7F00" transform="translate(0,0)"/>
<path d="" fill="#3F7F3F" transform="translate(0,0)"/>
<path d="" fill="#555555" transform="translate(0,0)"/>
<path d="" fill="#555555" transform="translate(0,0)"/>
<path d="" fill="#7F7F7F" transform="translate(0,0)"/>
<path d="" fill="#555555" transform="translate(0,0)"/>
<path d="" fill="#3F7F3F" transform="translate(0,0)"/>
<path d="" fill="#555555" transform="translate(0,0)"/>
<path d="" fill="#555555" transform="translate(0,0)"/>
<path d="" fill="#555555" transform="translate(0,0)"/>
<path d="" fill="#7F7F7F" transform="translate(0,0)"/>
<path d="" fill="#3F7F3F" transform="translate(0,0)"/>
<path d="" fill="#555555" transform="translate(0,0)"/>
<path d="" fill="#7F7F7F" transform="translate(0,0)"/>
<path d="" fill="#3F7F3F" transform="translate(0,0)"/>
<path d="" fill="#555555" transform="translate(0,0)"/>
<path d="" fill="#3F7F3F" transform="translate(0,0)"/>
<path d="" fill="#7F7F7F" transform="translate(0,0)"/>
<path d="" fill="#555555" transform="translate(0,0)"/>
<path d="" fill="#3F7F3F" transform="translate(0,0)"/>
<path d="" fill="#3F7F3F" transform="translate(0,0)"/>
<path d="" fill="#555555" transform="translate(0,0)"/>
<path d="" fill="#FF0000" transform="translate(0,0)"/>
<path d="" fill="#3F7F3F" transform="translate(0,0)"/>
<path d="" fill="#555555" transform="translate(0,0)"/>
<path d="" fill="#336633" transform="translate(0,0)"/>
<path d="" fill="#3F7F3F" transform="translate(0,0)"/>
<path d="" fill="#3F7F3F" transform="translate(0,0)"/>
<path d="" fill="#FF7F00" transform="translate(0,0)"/>
<path d="" fill="#3F7F3F" transform="translate(0,0)"/>
<path d="" fill="#486D48" transform="translate(0,0)"/>
<path d="" fill="#557F55" transform="translate(0,0)"/>
<path d="" fill="#BF7F3F" transform="translate(0,0)"/>
<path d="" fill="#336633" transform="translate(0,0)"/>
<path d="" fill="#336633" transform="translate(0,0)"/>
<path d="" fill="#3F7F3F" transform="translate(0,0)"/>
<path d="" fill="#3F7F3F" transform="translate(0,0)"/>
<path d="" fill="#557F55" transform="translate(0,0)"/>
<path d="" fill="#FF0000" transform="translate(0,0)"/>
<path d="" fill="#CC6633" transform="translate(0,0)"/>
<path d="" fill="#336633" transform="translate(0,0)"/>
<path d="" fill="#CC6633" transform="translate(0,0)"/>
<path d="" fill="#CC6633" transform="translate(0,0)"/>
<path d="" fill="#CC6633" transform="translate(0,0)"/>
<path d="" fill="#BF7F00" transform="translate(0,0)"/>
<path d="" fill="#BF7F3F" transform="translate(0,0)"/>
<path d="" fill="#AA5555" transform="translate(0,0)"/>
<path d="" fill="#CC6633" transform="translate(0,0)"/>
<path d="" fill="#3F7F3F" transform="translate(0,0)"/>
<path d="" fill="#3F7F3F" transform="translate(0,0)"/>
<path d="" fill="#BF7F3F" transform="translate(0,0)"/>
<path d="" fill="#BF7F3F" transform="translate(0,0)"/>
<path d="" fill="#CC6633" transform="translate(0,0)"/>
<path d="" fill="#336633" transform="translate(0,0)"/>
<path d="" fill="#3F7F3F" transform="translate(0,0)"/>
<path d="" fill="#CC6633" transform="translate(0,0)"/>
<path d="" fill="#BF7F3F" transform="translate(0,0)"/>
<path d="" fill="#BF7F3F" transform="translate(0,0)"/>
<path d="" fill="#BF7F3F" transform="translate(0,0)"/>
<path d="" fill="#AA5555" transform="translate(0,0)"/>
<path d="" fill="#555555" transform="translate(0,0)"/>
<path d="" fill="#AA5500" transform="translate(0,0)"/>
<path d="" fill="#BF7F3F" transform="translate(0,0)"/>
<path d="" fill="#666633" transform="translate(0,0)"/>
<path d="" fill="#AA5500" transform="translate(0,0)"/>
<path d="" fill="#BF7F3F" transform="translate(0,0)"/>
<path d="" fill="#3F7F3F" transform="translate(0,0)"/>
<path d="" fill="#CC6633" transform="translate(0,0)"/>
<path d="" fill="#916D24" transform="translate(0,0)"/>
<path d="" fill="#9F5F1F" transform="translate(0,0)"/>
<path d="" fill="#FF0000" transform="translate(0,0)"/>
<path d="" fill="#FF0000" transform="translate(0,0)"/>
<path d="" fill="#FF0000" transform="translate(0,0)"/>
<path d="" fill="#7F7F7F" transform="translate(0,0)"/>
<path d="" fill="#BF7F3F" transform="translate(0,0)"/>
<path d="" fill="#BF7F3F" transform="translate(0,0)"/>
<path d="" fill="#7F7F7F" transform="translate(0,0)"/>
<path d="" fill="#7F7F7F" transform="translate(0,0)"/>
<path d="" fill="#7F7F7F" transform="translate(0,0)"/>
<path d="" fill="#FF7F00" transform="translate(0,0)"/>
<path d="" fill="#D4552A" transform="translate(0,0)"/>
<path d="" fill="#DA6D24" transform="translate(0,0)"/>
<path d="" fill="#7F7F7F" transform="translate(0,0)"/>
<path d="" fill="#7F7F7F" transform="translate(0,0)"/>
<path d="" fill="#BF7F3F" transform="translate(0,0)"/>
<path d="" fill="#FFFF00" transform="translate(0,0)"/>
<path d="" fill="#FFFF7F" transform="translate(0,0)"/>
<path d="" fill="#AA5500" transform="translate(0,0)"/>
<path d="" fill="#FFFF00" transform="translate(0,0)"/>
<path d="" fill="#FFFF00" transform="translate(0,0)"/>
<path d="" fill="#FFFF7F" transform="translate(0,0)"/>
<path d="" fill="#BF7F3F" transform="translate(0,0)"/>
<path d="" fill="#AA5555" transform="translate(0,0)"/>
<path d="" fill="#FFFF00" transform="translate(0,0)"/>
<path d="" fill="#BF7F00" transform="translate(0,0)"/>
<path d="" fill="#AA5500" transform="translate(0,0)"/>
<path d="" fill="#BF7F3F" transform="translate(0,0)"/>
<path d="" fill="#AA5500" transform="translate(0,0)"/>
<path d="" fill="#555555" transform="translate(0,0)"/>
<path d="" fill="#AA5500" transform="translate(0,0)"/>
<path d="" fill="#000000" transform="translate(0,0)"/>
<path d="" fill="#3F7F3F" transform="translate(0,0)"/>
<path d="" fill="#3F7F3F" transform="translate(0,0)"/>
<path d="" fill="#FFAA55" transform="translate(0,0)"/>
<path d="" fill="#FFFF7F" transform="translate(0,0)"/>
<path d="" fill="#FFFF7F" transform="translate(0,0)"/>
<path d="" fill="#FFFF00" transform="translate(0,0)"/>
<path d="" fill="#FFFF7F" transform="translate(0,0)"/>
<path d="" fill="#FFFF7F" transform="translate(0,0)"/>
<path d="" fill="#FFFF7F" transform="translate(0,0)"/>
<path d="" fill="#FFFF7F" transform="translate(0,0)"/>
<path d="" fill="#FFFF7F" transform="translate(0,0)"/>
<path d="" fill="#CC6633" transform="translate(0,0)"/>
<path d="" fill="#FFFF7F" transform="translate(0,0)"/>
<path d="" fill="#7F7F7F" transform="translate(0,0)"/>
<path d="" fill="#000000" transform="translate(0,0)"/>
<path d="" fill="#FFFF7F" transform="translate(0,0)"/>
<path d="" fill="#FFFF7F" transform="translate(0,0)"/>
<path d="" fill="#FFFF00" transform="translate(0,0)"/>
<path d="" fill="#555555" transform="translate(0,0)"/>
<path d="" fill="#7F7F7F" transform="translate(0,0)"/>
<path d="" fill="#FFFF7F" transform="translate(0,0)"/>
<path d="" fill="#FFAA55" transform="translate(0,0)"/>
<path d="" fill="#3F7F3F" transform="translate(0,0)"/>
<path d="" fill="#336633" transform="translate(0,0)"/>
<path d="" fill="#FFAA55" transform="translate(0,0)"/>
<path d="" fill="#3F7F3F" transform="translate(0,0)"/>
<path d="" fill="#3F7F3F" transform="translate(0,0)"/>
<path d="" fill="#D4552A" transform="translate(0,0)"/>
<path d="" fill="#7F7F7F" transform="translate(0,0)"/>
<path d="" fill="#FFAA55" transform="translate(0,0)"/>
<path d="" fill="#7F7F7F" transform="translate(0,0)"/>
<path d="" fill="#000000" transform="translate(0,0)"/>
<path d="" fill="#FFFF7F" transform="translate(0,0)"/>
<path d="" fill="#FFFF7F" transform="translate(0,0)"/>
<path d="" fill="#BF7F3F" transform="translate(0,0)"/>
<path d="" fill="#FFFF7F" transform="translate(0,0)"/>
<path d="" fill="#FFFF7F" transform="translate(0,0)"/>
<path d="" fill="#FFAA55" transform="translate(0,0)"/>
<path d="" fill="#FFFF00" transform="translate(0,0)"/>
<path d="" fill="#FFFF7F" transform="translate(0,0)"/>
<path d="" fill="#AA5500" transform="translate(0,0)"/>
<path d="" fill="#FFAA55" transform="translate(0,0)"/>
<path d="" fill="#FFFF7F" transform="translate(0,0)"/>
<path d="" fill="#FFFF7F" transform="translate(0,0)"/>
<path d="" fill="#FFAA55" transform="translate(0,0)"/>
<path d="" fill="#FFFF7F" transform="translate(0,0)"/>
<path d="" fill="#FFFF7F" transform="translate(0,0)"/>
<path d="" fill="#FFAA55" transform="translate(0,0)"/>
<path d="" fill="#FFCC66" transform="translate(0,0)"/>
<path d="" fill="#FFCC66" transform="translate(0,0)"/>
<path d="" fill="#FFAA55" transform="translate(0,0)"/>
<path d="" fill="#FFAA55" transform="translate(0,0)"/>
<path d="" fill="#CCCC66" transform="translate(0,0)"/>
<path d="" fill="#FFFF7F" transform="translate(0,0)"/>
<path d="" fill="#FFFF00" transform="translate(0,0)"/>
<path d="" fill="#FFAA55" transform="translate(0,0)"/>
<path d="" fill="#BF7F3F" transform="translate(0,0)"/>
<path d="" fill="#AA5555" transform="translate(0,0)"/>
<path d="" fill="#FFBF7F" transform="translate(0,0)"/>
<path d="" fill="#BF7F3F" transform="translate(0,0)"/>
<path d="" fill="#BF7F3F" transform="translate(0,0)"/>
<path d="" fill="#FFBF3F" transform="translate(0,0)"/>
<path d="" fill="#BF7F3F" transform="translate(0,0)"/>
<path d="" fill="#BF7F3F" transform="translate(0,0)"/>
<path d="" fill="#BF7F3F" transform="translate(0,0)"/>
<path d="" fill="#AA5500" transform="translate(0,0)"/>
<path d="" fill="#FFFF7F" transform="translate(0,0)"/>
<path d="" fill="#FFFF7F" transform="translate(0,0)"/>
<path d="" fill="#FFFF7F" transform="translate(0,0)"/>
<path d="" fill="#FFFF7F" transform="translate(0,0)"/>
<path d="" fill="#FFFF7F" transform="translate(0,0)"/>
<path d="" fill="#FFFF00" transform="translate(0,0)"/>
<path d="" fill="#FFBF7F" transform="translate(0,0)"/>
<path d="" fill="#FFFF7F" transform="translate(0,0)"/>
<path d="" fill="#FFFF7F" transform="translate(0,0)"/>
<path d="" fill="#FFFF00" transform="translate(0,0)"/>
<path d="" fill="#AA5500" transform="translate(0,0)"/>
<path d="" fill="#FFBF3F" transform="translate(0,0)"/>
<path d="" fill="#FFFF7F" transform="translate(0,0)"/>
<path d="" fill="#FFAA55" transform="translate(0,0)"/>
<path d="" fill="#FFBF7F" transform="translate(0,0)"/>
<path d="" fill="#BF7F3F" transform="translate(0,0)"/>
<path d="" fill="#BF7F3F" transform="translate(0,0)"/>
<path d="" fill="#FFBF7F" transform="translate(0,0)"/>
<path d="" fill="#FFAA55" transform="translate(0,0)"/>
<path d="" fill="#FFFF7F" transform="translate(0,0)"/>
<path d="" fill="#BF7F3F" transform="translate(0,0)"/>
<path d="" fill="#BF7F3F" transform="translate(0,0)"/>
<path d="" fill="#FFFF7F" transform="translate(0,0)"/>
<path d="" fill="#BF7F3F" transform="translate(0,0)"/>
<path d="" fill="#AA5500" transform="translate(0,0)"/>
<path d="" fill="#FFFF00" transform="translate(0,0)"/>
<path d="" fill="#FFFF00" transform="translate(0,0)"/>
<path d="" fill="#AA5500" transform="translate(0,0)"/>
<path d="" fill="#FFAA55" transform="translate(0,0)"/>
<path d="" fill="#FFAA55" transform="translate(0,0)"/>
<path d="" fill="#FFAA55" transform="translate(0,0)"/>
<path d="" fill="#FFAA55" transform="translate(0,0)"/>
<path d="" fill="#FFAA55" transform="translate(0,0)"/>
<path d="" fill="#FFBF3F" transform="translate(0,0)"/>
<path d="" fill="#FFFF00" transform="translate(0,0)"/>
<path d="" fill="#FFAA55" transform="translate(0,0)"/>
<path d="" fill="#FFFF7F" transform="translate(0,0)"/>
<path d="" fill="#FFAA55" transform="translate(0,0)"/>
<path d="" fill="#FFAA55" transform="translate(0,0)"/>
<path d="" fill="#FFFF7F" transform="translate(0,0)"/>
<path d="" fill="#FFAA55" transform="translate(0,0)"/>
<path d="" fill="#FFFF00" transform="translate(0,0)"/>
<path d="" fill="#FFAA55" transform="translate(0,0)"/>
<path d="" fill="#FFAA55" transform="translate(0,0)"/>
<path d="" fill="#FFFF7F" transform="translate(0,0)"/>
<path d="" fill="#FFFF7F" transform="translate(0,0)"/>
<path d="" fill="#FFBF7F" transform="translate(0,0)"/>
<path d="" fill="#FFAA55" transform="translate(0,0)"/>
<path d="" fill="#FFFF00" transform="translate(0,0)"/>
<path d="" fill="#FFFF00" transform="translate(0,0)"/>
<path d="" fill="#FFFF00" transform="translate(0,0)"/>
<path d="" fill="#FFFF00" transform="translate(0,0)"/>
<path d="" fill="#FFFF00" transform="translate(0,0)"/>
<path d="" fill="#FFBF7F" transform="translate(0,0)"/>
<path d="" fill="#BF7F3F" transform="translate(0,0)"/>
<path d="" fill="#AA5555" transform="translate(0,0)"/>
<path d="" fill="#FF7F00" transform="translate(0,0)"/>
<path d="" fill="#BF7F3F" transform="translate(0,0)"/>
<path d="" fill="#AA5555" transform="translate(0,0)"/>
<path d="" fill="#AA5500" transform="translate(0,0)"/>
<path d="" fill="#FF7F00" transform="translate(0,0)"/>
<path d="" fill="#BF7F3F" transform="translate(0,0)"/>
<path d="" fill="#FF7F00" transform="translate(0,0)"/>
<path d="" fill="#FF7F00" transform="translate(0,0)"/>
<path d="" fill="#BF7F3F" transform="translate(0,0)"/>
<path d="" fill="#BF7F3F" transform="translate(0,0)"/>
<path d="" fill="#FF7F00" transform="translate(0,0)"/>
<path d="" fill="#BF7F3F" transform="translate(0,0)"/>
<path d="" fill="#AA5500" transform="translate(0,0)"/>
<path d="" fill="#AA5500" transform="translate(0,0)"/>
<path d="" fill="#AA5555" transform="translate(0,0)"/>
<path d="" fill="#AA5555" transform="translate(0,0)"/>
<path d="" fill="#AA5555" transform="translate(0,0)"/>
<path d="" fill="#AA5555" transform="translate(0,0)"/>
<path d="" fill="#BF7F3F" transform="translate(0,0)"/>
<path d="" fill="#AA5500" transform="translate(0,0)"/>
<path d="" fill="#FF0000" transform="translate(0,0)"/>
<path d="" fill="#FF7F00" transform="translate(0,0)"/>
</svg>
